<svg width="18" height="19" viewBox="0 0 18 19" fill="none" xmlns="http://www.w3.org/2000/svg">
<g clip-path="url(#clip0_1738_13041)">
<path d="M13.5703 8.58594C13.9586 8.58594 14.2734 8.27114 14.2734 7.88281C14.2734 7.49449 13.9586 7.17969 13.5703 7.17969C13.182 7.17969 12.8672 7.49449 12.8672 7.88281C12.8672 8.27114 13.182 8.58594 13.5703 8.58594Z" fill="black"/>
<path d="M15.1875 1.90625H14.2734V1.20312C14.2734 0.814789 13.9586 0.5 13.5703 0.5C13.182 0.5 12.8672 0.814789 12.8672 1.20312V1.90625H9.66797V1.20312C9.66797 0.814789 9.35318 0.5 8.96484 0.5C8.57651 0.5 8.26172 0.814789 8.26172 1.20312V1.90625H5.09766V1.20312C5.09766 0.814789 4.78287 0.5 4.39453 0.5C4.0062 0.5 3.69141 0.814789 3.69141 1.20312V1.90625H2.8125C1.26169 1.90625 0 3.16794 0 4.71875V15.6875C0 17.2383 1.26169 18.5 2.8125 18.5H8.19141C8.57974 18.5 8.89453 18.1852 8.89453 17.7969C8.89453 17.4085 8.57974 17.0938 8.19141 17.0938H2.8125C2.03709 17.0938 1.40625 16.4629 1.40625 15.6875V4.71875C1.40625 3.94334 2.03709 3.3125 2.8125 3.3125H3.69141V4.01562C3.69141 4.40396 4.0062 4.71875 4.39453 4.71875C4.78287 4.71875 5.09766 4.40396 5.09766 4.01562V3.3125H8.26172V4.01562C8.26172 4.40396 8.57651 4.71875 8.96484 4.71875C9.35318 4.71875 9.66797 4.40396 9.66797 4.01562V3.3125H12.8672V4.01562C12.8672 4.40396 13.182 4.71875 13.5703 4.71875C13.9586 4.71875 14.2734 4.40396 14.2734 4.01562V3.3125H15.1875C15.9629 3.3125 16.5938 3.94334 16.5938 4.71875V8.72656C16.5938 9.1149 16.9085 9.42969 17.2969 9.42969C17.6852 9.42969 18 9.1149 18 8.72656V4.71875C18 3.16794 16.7383 1.90625 15.1875 1.90625Z" fill="black"/>
<path d="M13.7461 9.99219C11.4005 9.99219 9.49219 11.9005 9.49219 14.2461C9.49219 16.5917 11.4005 18.5 13.7461 18.5C16.0917 18.5 18 16.5917 18 14.2461C18 11.9005 16.0917 9.99219 13.7461 9.99219ZM13.7461 17.0938C12.1759 17.0938 10.8984 15.8163 10.8984 14.2461C10.8984 12.6759 12.1759 11.3984 13.7461 11.3984C15.3163 11.3984 16.5938 12.6759 16.5938 14.2461C16.5938 15.8163 15.3163 17.0938 13.7461 17.0938Z" fill="black"/>
<path d="M14.7656 13.543H14.4492V12.8047C14.4492 12.4164 14.1344 12.1016 13.7461 12.1016C13.3578 12.1016 13.043 12.4164 13.043 12.8047V14.2461C13.043 14.6344 13.3578 14.9492 13.7461 14.9492H14.7656C15.154 14.9492 15.4688 14.6344 15.4688 14.2461C15.4688 13.8578 15.154 13.543 14.7656 13.543Z" fill="black"/>
<path d="M10.5117 8.58594C10.9 8.58594 11.2148 8.27114 11.2148 7.88281C11.2148 7.49449 10.9 7.17969 10.5117 7.17969C10.1234 7.17969 9.80859 7.49449 9.80859 7.88281C9.80859 8.27114 10.1234 8.58594 10.5117 8.58594Z" fill="black"/>
<path d="M7.45312 11.6445C7.84145 11.6445 8.15625 11.3297 8.15625 10.9414C8.15625 10.5531 7.84145 10.2383 7.45312 10.2383C7.0648 10.2383 6.75 10.5531 6.75 10.9414C6.75 11.3297 7.0648 11.6445 7.45312 11.6445Z" fill="black"/>
<path d="M4.39453 8.58594C4.78286 8.58594 5.09766 8.27114 5.09766 7.88281C5.09766 7.49449 4.78286 7.17969 4.39453 7.17969C4.00621 7.17969 3.69141 7.49449 3.69141 7.88281C3.69141 8.27114 4.00621 8.58594 4.39453 8.58594Z" fill="black"/>
<path d="M4.39453 11.6445C4.78286 11.6445 5.09766 11.3297 5.09766 10.9414C5.09766 10.5531 4.78286 10.2383 4.39453 10.2383C4.00621 10.2383 3.69141 10.5531 3.69141 10.9414C3.69141 11.3297 4.00621 11.6445 4.39453 11.6445Z" fill="black"/>
<path d="M4.39453 14.7031C4.78286 14.7031 5.09766 14.3883 5.09766 14C5.09766 13.6117 4.78286 13.2969 4.39453 13.2969C4.00621 13.2969 3.69141 13.6117 3.69141 14C3.69141 14.3883 4.00621 14.7031 4.39453 14.7031Z" fill="black"/>
<path d="M7.45312 14.7031C7.84145 14.7031 8.15625 14.3883 8.15625 14C8.15625 13.6117 7.84145 13.2969 7.45312 13.2969C7.0648 13.2969 6.75 13.6117 6.75 14C6.75 14.3883 7.0648 14.7031 7.45312 14.7031Z" fill="black"/>
<path d="M7.45312 8.58594C7.84145 8.58594 8.15625 8.27114 8.15625 7.88281C8.15625 7.49449 7.84145 7.17969 7.45312 7.17969C7.0648 7.17969 6.75 7.49449 6.75 7.88281C6.75 8.27114 7.0648 8.58594 7.45312 8.58594Z" fill="black"/>
</g>
<defs>
<clipPath id="clip0_1738_13041">
<rect width="18" height="18" fill="white" transform="translate(0 0.5)"/>
</clipPath>
</defs>
</svg>
