<svg width="18" height="18" viewBox="0 0 18 18" fill="none" xmlns="http://www.w3.org/2000/svg">
<path d="M15.4101 13.0701C15.4101 13.3016 15.3587 13.5394 15.2494 13.7708C15.1401 14.0023 14.9987 14.2208 14.8123 14.4266C14.4973 14.7737 14.1501 15.0244 13.758 15.1851C13.3723 15.3458 12.9544 15.4294 12.5044 15.4294C11.8487 15.4294 11.148 15.2751 10.4087 14.9601C9.66941 14.6451 8.93012 14.2208 8.19727 13.6873C7.45798 13.1473 6.75727 12.5494 6.08869 11.8873C5.42655 11.2187 4.82869 10.518 4.29512 9.78512C3.76798 9.05227 3.34369 8.31941 3.03512 7.59298C2.72655 6.86012 2.57227 6.15941 2.57227 5.49084C2.57227 5.05369 2.64941 4.63584 2.80369 4.25012C2.95798 3.85798 3.20227 3.49798 3.54298 3.17655C3.95441 2.77155 4.40441 2.57227 4.88012 2.57227C5.06012 2.57227 5.24012 2.61084 5.40084 2.68798C5.56798 2.76512 5.71584 2.88084 5.83155 3.04798L7.32298 5.15012C7.43869 5.31084 7.52227 5.45869 7.58012 5.60012C7.63798 5.73512 7.67012 5.87012 7.67012 5.99227C7.67012 6.14655 7.62512 6.30084 7.53512 6.44869C7.45155 6.59655 7.32941 6.75084 7.17512 6.90512L6.68655 7.41298C6.61584 7.48369 6.58369 7.56727 6.58369 7.67012C6.58369 7.72155 6.59012 7.76655 6.60298 7.81798C6.62227 7.86941 6.64155 7.90798 6.65441 7.94655C6.77012 8.15869 6.96941 8.43512 7.25227 8.76941C7.54155 9.10369 7.85012 9.44441 8.18441 9.78512C8.53155 10.1258 8.86584 10.4408 9.20655 10.7301C9.54084 11.013 9.81727 11.2058 10.0358 11.3216C10.068 11.3344 10.1066 11.3537 10.1516 11.373C10.203 11.3923 10.2544 11.3987 10.3123 11.3987C10.4216 11.3987 10.5051 11.3601 10.5758 11.2894L11.0644 10.8073C11.2251 10.6466 11.3794 10.5244 11.5273 10.4473C11.6751 10.3573 11.823 10.3123 11.9837 10.3123C12.1058 10.3123 12.2344 10.338 12.3758 10.3958C12.5173 10.4537 12.6651 10.5373 12.8258 10.6466L14.9537 12.1573C15.1208 12.273 15.2366 12.408 15.3073 12.5687C15.3716 12.7294 15.4101 12.8901 15.4101 13.0701Z" stroke="#3C3C3C" stroke-miterlimit="10"/>
</svg>
