<svg width="14" height="13" viewBox="0 0 14 13" fill="none" xmlns="http://www.w3.org/2000/svg">
<path d="M11.2608 8.65277C10.5975 8.08546 9.92436 7.74182 9.26921 8.30827L8.878 8.65063C8.59178 8.89915 8.05961 10.0603 6.00204 7.6934C3.9449 5.32947 5.16907 4.9614 5.45572 4.71503L5.84907 4.37224C6.50079 3.8045 6.25484 3.0898 5.7848 2.35409L5.50114 1.90847C5.02896 1.17448 4.51478 0.692443 3.86135 1.25932L3.50828 1.56783C3.21948 1.77821 2.41222 2.46207 2.21641 3.76123C1.98074 5.32004 2.72416 7.10509 4.42737 9.06368C6.12844 11.0231 7.79395 12.0073 9.37161 11.9902C10.6828 11.9761 11.4746 11.2725 11.7223 11.0167L12.0766 10.7078C12.7283 10.1413 12.3234 9.56458 11.6597 8.99598L11.2608 8.65277Z" fill="#303030"/>
</svg>
