<svg width="28" height="28" viewBox="0 0 28 28" fill="none" xmlns="http://www.w3.org/2000/svg">
<path d="M14 28C21.732 28 28 21.732 28 14C28 6.26801 21.732 0 14 0C6.26801 0 0 6.26801 0 14C0 21.732 6.26801 28 14 28Z" fill="#EE1C25"/>
<path d="M21.4768 16.2103L20.102 16.1879L19.6549 14.8887L19.2088 16.1879L17.834 16.2112L18.9325 17.0363L18.5303 18.3495L19.6559 17.5608L20.7815 18.3495L20.3783 17.0363L21.4768 16.2103Z" fill="#FFFF00"/>
<path d="M16.4351 10.0119L16.4575 8.6371L17.7567 8.19003L16.4575 7.74296L16.4341 6.36816L15.6091 7.4667L14.2949 7.06536L15.0845 8.19096L14.2949 9.31656L15.6091 8.91243L16.4351 10.0119Z" fill="#FFFF00"/>
<path d="M16.4351 21.632L16.4575 20.2572L17.7567 19.8101L16.4575 19.3631L16.4341 17.9883L15.6091 19.0868L14.2949 18.6855L15.0845 19.8111L14.2949 20.9367L15.6091 20.5325L16.4351 21.632Z" fill="#FFFF00"/>
<path d="M20.2097 11.7011L20.8127 10.4663L19.5779 11.0693L18.5895 10.1135L18.7827 11.4734L17.5693 12.1183L18.9236 12.3563L19.1616 13.7106L19.8047 12.4963L21.1655 12.6886L20.2097 11.7011Z" fill="#FFFF00"/>
<path d="M12.6106 12.333L8.90431 12.2714L7.69937 8.76953L6.49537 12.2723L2.79004 12.3349L5.75151 14.5609L4.66697 18.1029L7.70124 15.9758L10.7364 18.101L9.65004 14.5599L12.6106 12.333Z" fill="#FFFF00"/>
</svg>
