<svg width="16" height="14" viewBox="0 0 16 14" fill="none" xmlns="http://www.w3.org/2000/svg">
<g clip-path="url(#clip0_663_15818)">
<mask id="mask0_663_15818" style="mask-type:luminance" maskUnits="userSpaceOnUse" x="0" y="0" width="14" height="14">
<path d="M0 2.86102e-06H13.5V13.5H0V2.86102e-06Z" fill="white"/>
</mask>
<g mask="url(#mask0_663_15818)">
<path d="M1.76991 0.197524C1.32003 0.197524 0.955322 0.562208 0.955322 1.01211V11.5048C0.955322 11.9547 1.32003 12.3193 1.76991 12.3193H9.42842C9.87832 12.3193 10.243 11.9547 10.243 11.5048V2.70937C10.243 2.54571 10.178 2.38874 10.0623 2.27302L8.16751 0.378244C8.05179 0.262546 7.89482 0.197524 7.73116 0.197524H1.76991Z" fill="#F4F8F8"/>
<path d="M8.80139 2.45374C8.74006 2.45374 8.68036 2.44672 8.62291 2.43388V11.5048C8.62291 11.9547 8.2582 12.3193 7.80835 12.3193H9.42845C9.87836 12.3193 10.243 11.9547 10.243 11.5048V2.70934C10.243 2.62027 10.2236 2.53329 10.1874 2.45374H8.80139Z" fill="#E5ECF1"/>
<path d="M10.0623 2.27338L8.16759 0.378635C8.11483 0.3259 8.05345 0.283818 7.98682 0.253496V1.63954C7.98682 2.08942 8.35153 2.4541 8.8014 2.4541H10.1874C10.1571 2.3875 10.115 2.32612 10.0623 2.27338Z" fill="#FC8086"/>
<path d="M10.8936 10.793L7.98415 9.07002C7.83497 8.98159 7.78569 8.78897 7.87407 8.63976C7.87407 8.63976 7.94597 8.51839 8.02294 8.38851L7.43432 8.04028C7.04601 7.81742 6.86442 7.77624 6.5141 7.91166L6.13231 8.05926C5.89996 8.14909 5.63927 8.12739 5.42495 8.00044L4.40307 7.39792L2.95166 9.84783L4.26018 10.6201C4.3488 10.6727 4.42664 10.7416 4.48958 10.8231L4.93052 11.395C5.17404 11.6798 5.67668 12.0493 5.99913 12.2404L7.68207 13.2374C7.90421 13.369 8.19098 13.2956 8.32258 13.0734C8.45417 12.8513 8.38077 12.5645 8.15863 12.4329L8.68441 12.7444C8.90658 12.876 9.19333 12.8026 9.32492 12.5805C9.45652 12.3584 9.38314 12.0716 9.161 11.94L9.51153 12.1476C9.73367 12.2792 10.0204 12.2058 10.152 11.9837C10.2836 11.7616 10.2102 11.4748 9.98809 11.3432L10.4171 11.5973C10.6392 11.7289 10.9259 11.6555 11.0575 11.4334C11.1891 11.2113 11.1157 10.9245 10.8936 10.793Z" fill="#FFECE3"/>
<path d="M10.8935 10.7925L9.89082 10.1987C9.86876 10.2845 9.82617 10.3676 9.75675 10.4397C9.57893 10.6244 9.2934 10.6544 9.07284 10.5238L8.78765 10.3548C8.77747 10.3488 8.76452 10.3506 8.7564 10.3592C8.74812 10.3679 8.74746 10.3812 8.75443 10.3911C8.87374 10.5609 8.89035 10.7915 8.77771 10.9817C8.62444 11.2404 8.29049 11.3259 8.03181 11.1726L7.80774 11.0389C7.79891 11.0336 7.78757 11.0352 7.78061 11.0428C7.77349 11.0506 7.7732 11.0622 7.77955 11.0706C7.9111 11.2441 7.93129 11.4876 7.80932 11.6853C7.6522 11.9399 7.3137 12.0128 7.05633 11.8603L6.87228 11.7512C6.83576 11.7296 6.78994 11.7314 6.75527 11.756C6.72057 11.7805 6.70345 11.8231 6.71194 11.8647C6.73807 11.9924 6.71893 12.1298 6.64727 12.2507C6.58596 12.3542 6.49555 12.4294 6.39282 12.4732L7.67139 13.2307C7.89686 13.3643 8.1976 13.2932 8.32693 13.0653C8.45234 12.8442 8.37811 12.5626 8.1585 12.4325L8.67374 12.7378C8.89921 12.8713 9.19998 12.8003 9.32931 12.5723C9.45471 12.3513 9.38044 12.0697 9.16088 11.9396L9.50085 12.141C9.72629 12.2745 10.0271 12.2035 10.1564 11.9756C10.2818 11.7545 10.2075 11.4729 9.98796 11.3428L10.4064 11.5907C10.6318 11.7242 10.9326 11.6532 11.0619 11.4253C11.1873 11.2043 11.113 10.9226 10.8935 10.7925Z" fill="#FFDDCE"/>
<path d="M9.98811 11.3428L8.65894 10.5553" stroke="black" stroke-width="0.395508" stroke-miterlimit="10" stroke-linecap="round" stroke-linejoin="round"/>
<path d="M9.161 11.9395L8.18164 11.3592" stroke="black" stroke-width="0.395508" stroke-miterlimit="10" stroke-linecap="round" stroke-linejoin="round"/>
<path d="M8.15868 12.4326L7.7749 12.2053" stroke="black" stroke-width="0.395508" stroke-miterlimit="10" stroke-linecap="round" stroke-linejoin="round"/>
<path d="M10.6416 7.54379L9.8567 7.99999C9.64239 8.12695 9.3817 8.14863 9.14935 8.05882L8.71875 7.88965C8.58409 7.83676 8.43622 7.82739 8.29595 7.86291L7.63624 8.02987C7.32912 8.10757 7.11401 8.3839 7.11401 8.70073V9.58137C7.11401 9.7059 7.21489 9.80717 7.33943 9.80725C7.7149 9.80749 8.01938 9.50319 8.01938 9.12775V9.09046L10.8432 10.7627C10.8955 10.707 10.9555 10.6588 11.0215 10.6197L12.093 9.9937L10.6416 7.54379Z" fill="#FCD0A3"/>
<path d="M11.0603 8.25046L10.9094 8.81005L9.21875 9.80069L10.8433 10.7627C10.8956 10.707 10.9555 10.6588 11.0215 10.6197L12.093 9.9937L11.0603 8.25046Z" fill="#FFB983"/>
<path d="M4.83374 11.1385L4.56898 11.5073C4.41845 11.717 4.12644 11.7649 3.91676 11.6144C3.70709 11.4639 3.65913 11.1719 3.80966 10.9622L4.07439 10.5934C4.22494 10.3837 4.51693 10.3358 4.72663 10.4863C4.93633 10.6368 4.98427 10.9289 4.83374 11.1385Z" fill="#FCD0A3"/>
<path d="M5.88495 11.2765L5.32802 12.0522C5.17749 12.2619 4.88548 12.3099 4.67581 12.1593C4.46611 12.0088 4.41817 11.7168 4.5687 11.5071L5.1256 10.7314C5.27616 10.5217 5.56815 10.4738 5.77785 10.6243C5.98755 10.7748 6.03548 11.0668 5.88495 11.2765Z" fill="#FCD0A3"/>
<path d="M6.64447 11.8224L6.08755 12.5981C5.93702 12.8078 5.64502 12.8558 5.43533 12.7052C5.22563 12.5547 5.17769 12.2627 5.32822 12.053L5.88515 11.2773C6.03568 11.0676 6.32767 11.0196 6.53737 11.1702C6.74707 11.3207 6.795 11.6127 6.64447 11.8224Z" fill="#FCD0A3"/>
<path d="M7.15651 12.7122L6.97134 12.9702C6.82081 13.1799 6.52879 13.2278 6.31909 13.0773C6.10942 12.9268 6.06148 12.6348 6.21201 12.4251L6.39719 12.1671C6.54772 11.9574 6.83974 11.9095 7.04941 12.06C7.25911 12.2106 7.30707 12.5025 7.15651 12.7122Z" fill="#FFB983"/>
<path d="M4.94986 7.14335L4.54054 6.90085C4.42792 6.83412 4.28253 6.87135 4.21582 6.98394L2.53289 9.82466C2.46618 9.9373 2.50338 10.0827 2.616 10.1494L3.02535 10.3919C3.29991 10.5545 3.65433 10.4638 3.81702 10.1893L5.15249 7.93503C5.31515 7.66044 5.22445 7.30601 4.94986 7.14335Z" fill="#7C8B96"/>
<path d="M10.5038 6.90085L10.0945 7.14335C9.8199 7.30601 9.72914 7.66047 9.89183 7.93505L11.2273 10.1893C11.39 10.4638 11.7444 10.5545 12.019 10.3919L12.4283 10.1494C12.5409 10.0827 12.5781 9.9373 12.5114 9.82469L10.8285 6.98394C10.7618 6.87135 10.6164 6.83415 10.5038 6.90085Z" fill="#7C8B96"/>
<path d="M2.36621 3.83203H8.83208" stroke="black" stroke-width="0.395508" stroke-miterlimit="10" stroke-linecap="round" stroke-linejoin="round"/>
<path d="M2.36621 2.4541H5.59914" stroke="black" stroke-width="0.395508" stroke-miterlimit="10" stroke-linecap="round" stroke-linejoin="round"/>
<path d="M2.36621 5.05273H8.83208" stroke="black" stroke-width="0.395508" stroke-miterlimit="10" stroke-linecap="round" stroke-linejoin="round"/>
<path d="M7.98682 0.25347V1.63951C7.98682 2.08942 8.35153 2.4541 8.8014 2.4541H10.1874" stroke="black" stroke-width="0.395508" stroke-miterlimit="10" stroke-linecap="round" stroke-linejoin="round"/>
<path d="M10.243 6.0917V2.70937C10.243 2.54571 10.178 2.38874 10.0623 2.27302L8.16751 0.37827C8.05176 0.262545 7.8948 0.197522 7.73114 0.197522H1.76988C1.32003 0.197522 0.955322 0.562208 0.955322 1.01211V11.5048C0.955322 11.9547 1.32003 12.3193 1.76988 12.3193H3.83913" stroke="black" stroke-width="0.395508" stroke-miterlimit="10" stroke-linecap="round" stroke-linejoin="round"/>
<path d="M4.94986 7.14335L4.54054 6.90085C4.42792 6.83412 4.28253 6.87135 4.21582 6.98394L2.53289 9.82466C2.46618 9.9373 2.50338 10.0827 2.616 10.1494L3.02535 10.3919C3.29991 10.5545 3.65433 10.4638 3.81702 10.1893L5.15249 7.93503C5.31515 7.66044 5.22445 7.30601 4.94986 7.14335Z" stroke="black" stroke-width="0.395508" stroke-miterlimit="10" stroke-linecap="round" stroke-linejoin="round"/>
<path d="M10.6014 9.13271L11.2273 10.1892C11.39 10.4638 11.7444 10.5545 12.019 10.3919L12.4283 10.1494C12.5409 10.0826 12.5781 9.93731 12.5114 9.82467L10.8285 6.98394C10.7618 6.87133 10.6164 6.83413 10.5038 6.90084L10.0944 7.14336C9.81988 7.30602 9.72915 7.66045 9.89183 7.93504L10.1279 8.33355" stroke="black" stroke-width="0.395508" stroke-miterlimit="10" stroke-linecap="round" stroke-linejoin="round"/>
<path d="M7.50195 8.07954L7.43442 8.0396C7.04614 7.81677 6.86455 7.77558 6.51423 7.91098L6.13244 8.05861C5.90009 8.14842 5.63937 8.12674 5.42506 7.99978L5.18896 7.86057" stroke="black" stroke-width="0.395508" stroke-miterlimit="10" stroke-linecap="round" stroke-linejoin="round"/>
<path d="M3.72607 10.3046L4.12171 10.5381" stroke="black" stroke-width="0.395508" stroke-miterlimit="10" stroke-linecap="round" stroke-linejoin="round"/>
<path d="M7.04834 12.8621L7.68176 13.2374C7.9039 13.369 8.19067 13.2956 8.32227 13.0734C8.4539 12.8513 8.38046 12.5645 8.15835 12.4329L8.68411 12.7444C8.90628 12.876 9.19305 12.8026 9.32465 12.5805C9.45624 12.3584 9.38284 12.0716 9.16069 11.94L9.51122 12.1476C9.73336 12.2792 10.0201 12.2058 10.1517 11.9837C10.2833 11.7616 10.2099 11.4748 9.98778 11.3432L10.4168 11.5973C10.6389 11.7289 10.9256 11.6555 11.0572 11.4334C11.1888 11.2113 11.1154 10.9245 10.8933 10.7929" stroke="black" stroke-width="0.395508" stroke-miterlimit="10" stroke-linecap="round" stroke-linejoin="round"/>
<path d="M9.91178 7.96798L9.85673 7.99999C9.64242 8.12695 9.3817 8.14865 9.14935 8.05882L8.71877 7.88965C8.58409 7.83676 8.43625 7.8274 8.29598 7.86291L7.63624 8.02987C7.32914 8.10757 7.11401 8.38393 7.11401 8.70073V9.58137C7.11401 9.7059 7.21492 9.80717 7.33943 9.80725C7.71492 9.80749 8.01938 9.50319 8.01938 9.12775V9.09046L10.8432 10.7627C10.8955 10.707 10.9555 10.6588 11.0215 10.6197L11.4216 10.386" stroke="black" stroke-width="0.395508" stroke-miterlimit="10" stroke-linecap="round" stroke-linejoin="round"/>
<path d="M4.56898 11.5073C4.41845 11.717 4.12644 11.7649 3.91676 11.6144C3.70709 11.4639 3.65913 11.1718 3.80966 10.9622L4.07439 10.5934C4.22494 10.3837 4.51693 10.3358 4.72663 10.4863C4.93633 10.6368 4.98427 10.9289 4.83374 11.1385" stroke="black" stroke-width="0.395508" stroke-miterlimit="10" stroke-linecap="round" stroke-linejoin="round"/>
<path d="M5.88495 11.2765L5.32802 12.0522C5.17749 12.2619 4.88548 12.3099 4.67581 12.1593C4.46611 12.0088 4.41817 11.7168 4.5687 11.5071L5.1256 10.7314C5.27616 10.5217 5.56815 10.4738 5.77785 10.6243C5.98755 10.7748 6.03548 11.0668 5.88495 11.2765Z" stroke="black" stroke-width="0.395508" stroke-miterlimit="10" stroke-linecap="round" stroke-linejoin="round"/>
<path d="M5.88515 11.2773C6.03568 11.0676 6.32767 11.0196 6.53734 11.1702C6.74704 11.3207 6.795 11.6127 6.64447 11.8224L6.08755 12.5981C5.93702 12.8078 5.64503 12.8558 5.4353 12.7052C5.22563 12.5547 5.17769 12.2627 5.32822 12.053" stroke="black" stroke-width="0.395508" stroke-miterlimit="10" stroke-linecap="round" stroke-linejoin="round"/>
<path d="M6.39719 12.1671C6.54772 11.9574 6.83974 11.9095 7.04941 12.06C7.25908 12.2105 7.30707 12.5025 7.15651 12.7122L6.97131 12.9702C6.82078 13.1799 6.52879 13.2278 6.31909 13.0773C6.10942 12.9268 6.06148 12.6347 6.21201 12.4251" stroke="black" stroke-width="0.395508" stroke-miterlimit="10" stroke-linecap="round" stroke-linejoin="round"/>
</g>
</g>
<defs>
<clipPath id="clip0_663_15818">
<rect width="15.626" height="13.5" fill="white"/>
</clipPath>
</defs>
</svg>
