<svg width="86" height="86" viewBox="0 0 94 98" fill="none" xmlns="http://www.w3.org/2000/svg">
<rect width="94" height="98" rx="10" fill="#FCFCFC"/>
<path d="M50.2961 92.903C72.057 92.903 89.6977 75.2623 89.6977 53.5014C89.6977 31.7405 72.057 14.0998 50.2961 14.0998C28.5352 14.0998 10.8945 31.7405 10.8945 53.5014C10.8945 75.2623 28.5352 92.903 50.2961 92.903Z" fill="#F5F5F5"/>
<path d="M52.2312 10.0338C50.876 11.2425 50.7405 12.3303 50.7383 12.9057C50.7383 13.0742 50.787 13.2837 50.9515 13.3204C51.0334 13.3295 51.1161 13.3135 51.1888 13.2746L55.9269 11.3095" fill="#263238"/>
<path d="M67.6243 27.7602C68.5858 25.7053 69.3677 23.5712 69.9615 21.3816C70.4952 19.1778 70.6527 16.8421 70.0714 14.6503C69.9831 14.3185 69.1748 12.0688 68.8312 12.0696C68.5854 12.0696 69.0176 14.1375 68.8741 14.3368C67.5046 16.2414 66.9511 18.6346 66.9138 20.9791C66.8984 23.2588 67.1368 25.5332 67.6247 27.7602" fill="#263238"/>
<path d="M66.4821 39.9643L68.6798 19.1704C69.4101 13.5299 66.7385 8.40543 61.0797 7.83112L60.5537 7.80841C58.0011 7.69833 55.5006 8.55353 53.55 10.2038C51.5994 11.854 50.3418 14.1783 50.0275 16.7139C49.4213 21.6058 48.8144 27.0181 48.7342 29.6527C48.5683 35.1072 53.9843 36.1884 53.9843 36.1884C53.9964 36.1884 53.5342 41.7191 53.3983 43.3153L61.6258 43.5497L63.5985 43.5321L66.4821 39.9643Z" fill="#FFBF9D"/>
<path d="M54.0006 36.19C56.5189 36.2912 59.0135 35.6684 61.1887 34.3953C61.1887 34.3953 59.3053 38.4209 53.8867 37.6972L54.0006 36.19Z" fill="#FF9A6C"/>
<path d="M51.6837 21.7395C51.6731 21.9423 51.7422 22.1413 51.8761 22.294C52.0101 22.4467 52.1983 22.541 52.4008 22.557C52.4995 22.5691 52.5997 22.5613 52.6953 22.5341C52.791 22.5069 52.8802 22.4608 52.9578 22.3986C53.0354 22.3364 53.0998 22.2593 53.1471 22.1718C53.1944 22.0843 53.2237 21.9883 53.2333 21.8893C53.2441 21.6865 53.1753 21.4876 53.0415 21.3348C52.9078 21.1821 52.7197 21.0875 52.5173 21.0714C52.4185 21.0593 52.3182 21.067 52.2225 21.0942C52.1267 21.1214 52.0373 21.1675 51.9597 21.2297C51.882 21.292 51.8175 21.3692 51.7701 21.4567C51.7227 21.5442 51.6933 21.6404 51.6837 21.7395Z" fill="#263238"/>
<path d="M51.0794 19.1702C51.1713 19.2757 51.7801 18.8644 52.6177 18.9028C53.455 18.9285 54.0513 19.3859 54.1465 19.2874C54.193 19.2438 54.1026 19.0563 53.8432 18.8479C53.4915 18.5812 53.0658 18.4299 52.6247 18.4146C52.189 18.3943 51.7581 18.5133 51.3947 18.7545C51.1288 18.9428 51.0336 19.1226 51.0794 19.1702Z" fill="#263238"/>
<path d="M58.753 22.1729C58.7424 22.3758 58.8113 22.5748 58.9452 22.7276C59.0791 22.8803 59.2673 22.9748 59.4698 22.9908C59.5685 23.003 59.6687 22.9952 59.7644 22.9681C59.8601 22.9409 59.9493 22.8948 60.0269 22.8326C60.1045 22.7704 60.1689 22.6932 60.2162 22.6057C60.2635 22.5182 60.2928 22.4221 60.3023 22.3231C60.313 22.1203 60.2441 21.9214 60.1103 21.7686C59.9765 21.6159 59.7883 21.5214 59.5859 21.5052C59.4872 21.493 59.387 21.5007 59.2913 21.5279C59.1955 21.5551 59.1062 21.6011 59.0286 21.6633C58.9509 21.7256 58.8866 21.8027 58.8392 21.8903C58.7919 21.9778 58.7626 22.0739 58.753 22.1729Z" fill="#263238"/>
<path d="M59.2823 19.7165C59.3746 19.822 59.9837 19.4111 60.8207 19.4492C61.658 19.4752 62.2542 19.9326 62.3498 19.8337C62.396 19.7902 62.3066 19.603 62.0462 19.3964C61.6946 19.1296 61.2691 18.9781 60.828 18.9627C60.3924 18.9428 59.9617 19.0619 59.5981 19.3027C59.3325 19.4883 59.2369 19.6682 59.2823 19.7165Z" fill="#263238"/>
<path d="M55.9672 26.0282C55.5317 25.8709 55.0781 25.7689 54.6171 25.7245C54.404 25.6934 54.2036 25.6421 54.1736 25.4945C54.1652 25.2727 54.2244 25.0536 54.3435 24.8663C54.567 24.3572 54.8011 23.8233 55.046 23.2646C56.024 20.9828 56.7415 19.1035 56.6496 19.0646C56.5576 19.0258 55.6896 20.844 54.712 23.1258C54.4758 23.6888 54.2505 24.2246 54.0355 24.7374C53.8903 24.9899 53.8384 25.2853 53.889 25.5721C53.9168 25.6489 53.9617 25.7183 54.0204 25.7751C54.079 25.8319 54.1498 25.8746 54.2274 25.9C54.3446 25.9371 54.4659 25.9594 54.5886 25.9662C55.0436 26.0453 55.5069 26.0661 55.9672 26.0282Z" fill="#263238"/>
<path d="M59.1278 17.0865C59.2325 17.3063 60.0548 17.1151 61.0456 17.1363C62.0367 17.1363 62.8546 17.3458 62.9641 17.1297C63.0124 17.0264 62.8542 16.8268 62.5129 16.6389C62.0602 16.4117 61.5617 16.2907 61.0552 16.285C60.5488 16.2792 60.0477 16.389 59.59 16.606C59.2446 16.7862 59.0816 16.9825 59.1278 17.0865Z" fill="#263238"/>
<path d="M50.9521 16.8938C51.1151 17.0938 51.808 16.9359 52.6281 16.974C53.4493 16.9879 54.1346 17.1894 54.3056 16.9996C54.3811 16.907 54.2829 16.7103 53.9903 16.5129C53.5855 16.2644 53.1213 16.1297 52.6464 16.1228C52.1743 16.099 51.7047 16.2044 51.2879 16.4275C50.9869 16.6063 50.8806 16.7967 50.9521 16.8938Z" fill="#263238"/>
<path d="M68.0548 23.1911C68.1496 23.1545 71.8482 22.2436 71.5709 25.9652C71.2937 29.6869 67.613 28.639 67.6152 28.5328C67.6174 28.4265 68.0548 23.1911 68.0548 23.1911Z" fill="#FFBF9D"/>
<path d="M68.8549 27.2077C68.8721 27.1971 68.9165 27.2579 69.0223 27.3176C69.1715 27.395 69.345 27.4115 69.5061 27.3637C69.909 27.2491 70.2878 26.6495 70.3563 25.98C70.3896 25.6616 70.3513 25.3399 70.2442 25.0383C70.218 24.9194 70.1633 24.8086 70.0848 24.7155C70.0063 24.6225 69.9064 24.5498 69.7937 24.5039C69.7207 24.4784 69.641 24.4793 69.5686 24.5065C69.4962 24.5338 69.4358 24.5856 69.3977 24.653C69.3402 24.7533 69.3582 24.8295 69.3377 24.8343C69.3267 24.8427 69.2644 24.7658 69.3043 24.6145C69.3319 24.5239 69.3897 24.4454 69.4681 24.3922C69.5765 24.3224 69.7081 24.298 69.8343 24.3244C69.9849 24.366 70.1223 24.4456 70.2333 24.5554C70.3444 24.6653 70.4254 24.8018 70.4687 24.9518C70.6028 25.2861 70.6531 25.6481 70.6152 26.0063C70.5354 26.7543 70.0988 27.4278 69.549 27.5447C69.4469 27.5663 69.3412 27.5648 69.2397 27.54C69.1383 27.5153 69.0437 27.4681 68.963 27.4018C68.8549 27.2982 68.8414 27.2136 68.8549 27.2077Z" fill="#FF9A6C"/>
<path d="M52.9458 10.7549C52.3714 10.3722 54.3412 8.57416 55.8759 8.02695C58.1966 7.19992 61.663 6.86112 63.6749 7.6182C66.0977 8.52984 68.0562 9.93704 69.1132 12.3006C70.1205 14.7012 70.4713 17.3264 70.1296 19.9072C70.0943 20.7004 69.8478 21.4697 69.4154 22.1356C68.8272 22.9143 68.0503 23.2586 67.7357 24.4867C67.6881 24.894 67.5206 25.278 67.2544 25.5899C66.5131 26.2569 65.7377 25.5071 65.4121 24.7929C64.7162 23.2678 64.7711 21.521 64.8389 19.8461C64.8872 18.6553 64.9403 17.4397 65.3703 16.3299C65.604 15.7252 65.9454 15.1637 66.1454 14.5473C66.2647 14.245 66.3169 13.9203 66.2982 13.5959C66.2796 13.2714 66.1905 12.9549 66.0373 12.6683C65.9555 12.5501 65.8629 12.4398 65.7608 12.3387C65.28 11.8427 64.6759 11.4836 64.0104 11.2983C63.345 11.113 62.6422 11.1081 61.9743 11.2842C59.8177 11.8497 56.1484 12.657 55.2738 11.8676C54.0153 10.7322 53.7497 10.0389 53.7497 10.0389L52.9458 10.7549Z" fill="#263238"/>
<path d="M70.6478 23.2475C70.7233 23.19 70.8309 23.1856 70.9016 23.1277C75.6437 19.3138 72.4905 14.9987 72.5374 13.7545C72.6026 12.0294 74.5321 12.0697 74.0416 10.0332C73.712 8.66119 72.4356 7.61586 68.6091 5.99952C67.0063 5.32192 62.9781 4.81976 59.3715 5.26698C56.1531 5.66585 53.8562 7.73637 52.516 9.36333C52.1517 9.49492 51.82 9.70355 51.5436 9.975C50.903 10.9595 51.1191 11.4034 51.1191 11.4034C51.1191 11.4034 58.4104 8.35572 63.8682 13.6164C69.3259 18.8772 67.9264 22.9043 69.4669 23.0823L70.6478 23.2475Z" fill="#455A64"/>
<path d="M71.5923 12.2021C71.8426 12.5762 72.0687 12.966 72.2691 13.369C72.3603 13.5382 72.4255 13.6987 72.4889 13.8389C72.5522 13.9792 72.6032 14.0994 72.6416 14.2001C72.6774 14.3063 72.7223 14.4092 72.7757 14.5077C72.7532 14.3979 72.7216 14.29 72.6812 14.1854C72.6486 14.0822 72.6054 13.9569 72.5449 13.8155C72.4845 13.6741 72.4252 13.5086 72.3376 13.3357C72.1454 12.9241 71.9239 12.5268 71.675 12.1468C71.0641 11.2136 70.2994 10.3908 69.4133 9.71329C69.053 9.43739 68.6736 9.18745 68.2779 8.96537C68.112 8.86538 67.9519 8.79285 67.8146 8.72363C67.6772 8.6544 67.556 8.60093 67.4552 8.561C67.354 8.5127 67.2487 8.47325 67.1406 8.44307C67.2352 8.50342 67.3346 8.55561 67.438 8.5991C67.5355 8.64488 67.6538 8.70239 67.7871 8.77784C67.9204 8.85329 68.0772 8.92837 68.2394 9.03166C68.6262 9.26138 68.9979 9.5156 69.3522 9.79277C69.7837 10.1349 70.19 10.5078 70.5678 10.9084" fill="#263238"/>
<path d="M52.3174 9.44758C52.3404 9.44432 52.363 9.43855 52.3848 9.43037L52.5785 9.36884C52.7474 9.31097 52.9994 9.23515 53.3243 9.13882C53.6513 9.05018 54.0517 8.94177 54.5238 8.8513C55.0574 8.74326 55.5974 8.66985 56.1405 8.63154C57.5555 8.52981 58.9776 8.66486 60.3482 9.03114C62.0293 9.47258 63.6058 10.2437 64.9863 11.2998C65.6973 11.8471 66.3481 12.4687 66.9275 13.1539C67.4621 13.7967 67.9347 14.4886 68.3391 15.2204C69.0132 16.4685 69.5403 17.7905 69.91 19.1599C70.2334 20.3276 70.4202 21.292 70.5459 21.9579C70.6048 22.2875 70.6513 22.5439 70.6843 22.727C70.6997 22.8102 70.7118 22.8761 70.7209 22.927C70.7239 22.95 70.7293 22.9726 70.737 22.9944C70.7377 22.9712 70.736 22.948 70.7319 22.9252C70.725 22.8743 70.7165 22.8076 70.7052 22.7237C70.6814 22.5468 70.6433 22.2842 70.5869 21.9513C70.4741 21.2825 70.2983 20.3144 69.9833 19.1405C69.6223 17.7612 69.0996 16.4293 68.4259 15.1727C68.0209 14.4333 67.5463 13.7342 67.0084 13.085C66.4246 12.3929 65.768 11.7655 65.05 11.2137C63.6586 10.1488 62.0678 9.37367 60.3716 8.93408C58.9902 8.56955 57.557 8.44126 56.1328 8.55462C55.5871 8.59776 55.0449 8.6773 54.5099 8.7927C54.0366 8.88939 53.6367 9.00403 53.3107 9.0989C52.9869 9.20182 52.7364 9.28423 52.5694 9.34906L52.3793 9.42048C52.3579 9.42776 52.3372 9.43683 52.3174 9.44758Z" fill="#263238"/>
<path d="M55.4185 10.6849C55.3781 10.3074 55.4247 9.92564 55.5547 9.56896C55.6848 9.21227 55.8948 8.8901 56.1686 8.62717C56.0622 8.67263 55.968 8.74252 55.8936 8.83118C55.6987 9.03084 55.5485 9.26966 55.453 9.53178C55.3574 9.7939 55.3187 10.0733 55.3394 10.3516C55.3393 10.4673 55.3664 10.5815 55.4185 10.6849Z" fill="#263238"/>
<path d="M52.299 11.1617C52.211 10.5755 52.2706 9.9766 52.4726 9.41933C52.3037 9.67355 52.1996 9.96523 52.1694 10.2689C52.1391 10.5726 52.1836 10.8791 52.299 11.1617Z" fill="#263238"/>
<path d="M50.2872 7.31281C51.1868 6.34257 52.7614 6.17298 53.9499 6.75608C54.5339 7.07146 55.0405 7.5126 55.4333 8.04764C55.826 8.58269 56.095 9.19829 56.2208 9.84996C56.6583 9.69668 57.1363 9.70469 57.5685 9.87257C58.0007 10.0405 58.3587 10.3572 58.5781 10.7656L60.1453 11.2092C59.9269 11.8545 59.609 12.4618 59.2033 13.009C58.9978 13.2811 58.7322 13.502 58.4272 13.6545C58.1223 13.807 57.7862 13.8869 57.4452 13.8881C57.1049 13.8745 56.7821 13.7334 56.5412 13.4926C56.3002 13.2519 56.1588 12.9292 56.1449 12.5889C55.6516 13.6782 54.348 14.1705 53.1529 14.2078C52.2185 14.2364 51.2194 14.0221 50.567 13.3526C49.9147 12.683 49.7777 11.4758 50.4619 10.8393C49.4148 10.028 49.3877 8.28343 50.2872 7.31281Z" fill="#263238"/>
<path d="M55.2522 27.793L55.3988 27.701L57.5868 27.6307C57.7052 27.6161 57.8252 27.6341 57.9341 27.6827C58.0528 27.7652 58.1343 27.8911 58.1608 28.0332C58.2257 28.2737 58.2317 28.5262 58.1784 28.7694C58.1252 29.0127 58.0141 29.2395 57.8547 29.4308C57.6952 29.6221 57.4921 29.7722 57.2624 29.8684C57.0328 29.9646 56.7833 30.0042 56.5351 29.9837C56.287 29.9632 56.0474 29.8833 55.8366 29.7507C55.6258 29.618 55.4501 29.4366 55.3242 29.2218C55.1983 29.0069 55.126 28.765 55.1133 28.5163C55.1007 28.2676 55.1481 28.0195 55.2515 27.793H55.2522Z" fill="#FF9A6C"/>
<path d="M20.0749 61.6208L22.5604 62.7562L20.0449 67.884L18.0615 65.6358L20.0749 61.6208Z" fill="#FFBF9D"/>
<path d="M20.0664 60.3887C20.0136 60.2971 17.7222 56.6608 16.4289 55.2975C15.1356 53.9343 15.0998 52.445 14.1797 52.3209C13.2596 52.1967 13.0893 53.4929 13.5325 54.8203C13.9757 56.1476 15.1679 56.8311 14.8273 57.308C14.4866 57.7848 7.11033 56.5388 7.11033 56.5388C7.11033 56.5388 6.15804 55.5642 5.40645 56.382C5.40645 56.382 4.21718 56.0989 4.30765 57.0226C4.40507 58.0116 6.56423 58.0519 6.56423 58.0519L7.63483 59.9652L10.1255 60.8846C10.2414 61.5506 10.5523 62.1673 11.0188 62.6566C11.4303 63.0955 11.8975 63.4787 12.4084 63.7964C12.5106 63.8155 14.7258 65.1784 15.8513 65.4509C16.9769 65.7234 18.4753 65.9636 18.4753 65.9636L20.5198 61.8742C20.5075 61.3469 20.3506 60.833 20.0664 60.3887Z" fill="#FFBF9D"/>
<path d="M10.1402 61.0247C9.92952 60.4822 9.83434 59.9018 9.86076 59.3204C9.95013 58.5388 10.6867 55.0783 11.0218 55.0113C11.357 54.9443 11.9375 54.7432 12.0935 55.6812C12.2496 56.6192 11.7137 58.8359 11.7137 58.8882C11.9293 59.3645 12.0672 59.8722 12.1221 60.3921" fill="#FFBF9D"/>
<path d="M12.127 60.3923C12.1094 60.3923 12.093 60.218 12.0171 59.9125C11.9702 59.7275 11.9125 59.5454 11.8443 59.3671C11.804 59.2631 11.7578 59.1536 11.7055 59.0375L11.6652 58.9456C11.6496 58.9019 11.6485 58.8544 11.6622 58.8101C11.6754 58.7429 11.6886 58.6747 11.7018 58.6053C11.8345 57.9567 11.9344 57.3019 12.001 56.6432C12.051 56.2656 12.0351 55.8822 11.9542 55.51C11.9375 55.4226 11.9021 55.3399 11.8505 55.2675C11.7989 55.195 11.7323 55.1346 11.6553 55.0902C11.4694 55.037 11.2716 55.0426 11.089 55.1063C11.0498 55.088 11.0019 55.1895 10.9572 55.2774C10.9125 55.3653 10.877 55.466 10.8422 55.5634C10.7729 55.759 10.7129 55.9568 10.6568 56.1517C10.5469 56.5425 10.4495 56.9238 10.3638 57.2871C10.1917 58.0156 10.047 58.6789 9.95469 59.2327C9.89984 59.6709 9.92792 60.1155 10.0375 60.5432C10.083 60.7013 10.1196 60.8617 10.1473 61.0238C10.0592 60.8822 9.99508 60.727 9.95762 60.5645C9.8133 60.1292 9.76189 59.6686 9.80671 59.2122C9.8818 58.6434 10.0115 57.979 10.173 57.2432C10.2558 56.8769 10.3481 56.4908 10.4587 56.0945C10.514 55.8964 10.5737 55.6953 10.6451 55.4924C10.6806 55.3884 10.7213 55.2864 10.7671 55.1866C10.7912 55.132 10.8202 55.0797 10.8535 55.0302C10.874 54.9991 10.8986 54.971 10.9268 54.9466C10.9512 54.9292 10.9783 54.9158 11.007 54.9071L11.0458 54.8987C11.2718 54.8241 11.5157 54.8241 11.7417 54.8987C11.8468 54.9551 11.9383 55.034 12.0095 55.1297C12.0808 55.2254 12.1302 55.3356 12.1541 55.4525C12.24 55.8496 12.2541 56.259 12.1959 56.6612C12.1199 57.3258 12.0042 57.9853 11.8494 58.6361C11.8333 58.7049 11.8179 58.7723 11.8025 58.8383C11.7959 58.8837 11.786 58.8785 11.7959 58.8972L11.8304 58.9851C11.8783 59.1042 11.9212 59.2192 11.9567 59.3276C12.018 59.5132 12.0655 59.7031 12.0988 59.8957C12.1376 60.0582 12.1472 60.2264 12.127 60.3923Z" fill="#FF9A6C"/>
<path d="M18.0572 61.8888C17.6867 61.7673 17.3085 61.6711 16.925 61.6009C16.4925 61.5497 16.0541 61.5896 15.638 61.7181C15.1104 61.8835 14.6332 62.1794 14.2505 62.5784L14.0744 62.7616L14.078 62.5121C14.0875 61.8529 14.0982 61.1364 14.1091 60.3878V60.3856V60.3772L14.1282 60.1471C14.17 59.7208 14.131 59.2903 14.0132 58.8784C13.961 58.704 13.8419 58.5575 13.6818 58.4708C13.5218 58.3842 13.3339 58.3645 13.1594 58.4162C13.0829 58.4414 13.0142 58.486 12.9602 58.5458C12.9141 58.6109 12.885 58.6864 12.8752 58.7656C12.8353 58.9429 12.806 59.1216 12.7767 59.293C12.7247 59.6349 12.6758 59.9551 12.6302 60.2537C12.5485 60.8101 12.4796 61.2771 12.4247 61.6489C12.4107 61.822 12.375 61.9926 12.3185 62.1569C12.3121 61.9838 12.3205 61.8106 12.3434 61.639C12.3705 61.3068 12.4166 60.8269 12.4825 60.2347C12.5162 59.9384 12.5558 59.6142 12.6045 59.2663C12.6302 59.0919 12.6558 58.9128 12.6946 58.7253C12.703 58.6791 12.7181 58.629 12.7312 58.5788C12.7492 58.5217 12.7776 58.4684 12.8151 58.4217C12.8904 58.3348 12.9869 58.269 13.0953 58.2308C13.2037 58.1929 13.3186 58.1777 13.4331 58.1861C13.5476 58.1944 13.6592 58.2263 13.7608 58.2795C13.9697 58.3921 14.1291 58.5787 14.2077 58.8026C14.3396 59.2414 14.3846 59.7017 14.3403 60.1578C14.3329 60.2409 14.326 60.3237 14.3197 60.4002V60.3896C14.3036 61.139 14.2886 61.8547 14.2747 62.514L14.1022 62.4473C14.5122 62.026 15.0254 61.7193 15.5907 61.5577C16.0298 61.4331 16.491 61.4065 16.9415 61.4796C17.1087 61.5042 17.2732 61.5448 17.4327 61.6009C17.5533 61.6345 17.6703 61.6799 17.7821 61.7364C17.8802 61.7746 17.9727 61.8258 18.0572 61.8888Z" fill="#FF9A6C"/>
<path d="M9.85192 58.6742C9.34967 58.5448 8.85883 58.3745 8.38428 58.1651L8.35938 58.1552L8.34106 58.1256C8.15588 57.8445 7.94761 57.5794 7.71841 57.333C7.46127 57.0382 7.18329 56.7623 6.88661 56.5074C6.67071 56.3202 6.40496 56.1999 6.12184 56.1613C6.00025 56.1543 5.8787 56.1755 5.76668 56.2233C5.65466 56.2711 5.55522 56.3441 5.47611 56.4367V56.3294C5.81418 56.8323 6.09291 57.2571 6.2819 57.5593C6.39515 57.7106 6.48754 57.8764 6.5566 58.0523C6.41604 57.9258 6.29287 57.7812 6.19033 57.6223C5.97387 57.3385 5.67352 56.9286 5.32081 56.436L5.28125 56.3807L5.32154 56.3283C5.41682 56.2061 5.54005 56.1087 5.68084 56.044C5.82163 55.9794 5.97589 55.9495 6.13063 55.9569C6.4569 55.9934 6.76462 56.1273 7.01371 56.3411C7.32098 56.6037 7.60605 56.8912 7.86601 57.2008C8.10058 57.462 8.30912 57.7455 8.48867 58.0472L8.44545 58.0076C8.93165 58.1912 9.40204 58.4141 9.85192 58.6742Z" fill="#FF9A6C"/>
<path d="M40.7714 55.8084L40.1513 55.9032L38.354 56.2578L35.1763 67.3089L22.5846 62.7627L18.4707 65.965C18.4707 65.965 38.1126 79.051 41.0029 76.7974C43.8931 74.5437 46.1673 62.429 46.1673 62.429C46.2013 62.5078 40.7714 55.8084 40.7714 55.8084Z" fill="#FFBF9D"/>
<path d="M37.115 53.847C38.7306 48.6199 39.6342 44.9283 41.2648 43.3841C43.4624 41.3026 53.8472 38.2963 53.8472 38.2963C53.8472 38.2963 54.1355 41.1363 59.1215 41.3363C64.1075 41.5363 66.5648 36.9579 66.5648 36.9579C66.5648 36.9579 71.9347 38.3164 75.5546 39.3555C79.1216 40.3811 81.402 41.5564 82.9089 43.9148C84.8567 46.9637 87.9114 61.0313 87.9114 61.0313L75.4949 64.8706L76.2439 76.2692L76.7343 90.9735L41.3121 91.1145C41.3121 88.5308 43.6195 63.2971 43.6195 63.2971L34.8789 61.2302C34.8789 61.2302 35.6832 58.4781 37.115 53.847Z" fill="#393939"/>
<path d="M44.4165 48.8794C44.4027 48.9272 44.3939 48.9763 44.3902 49.0259C44.3766 49.1339 44.359 49.2739 44.3371 49.4467C44.2924 49.813 44.2389 50.343 44.181 50.9994C44.0649 52.3121 43.9499 54.1295 43.8854 56.1388C43.821 58.1482 43.8082 59.9693 43.8122 61.2864C43.817 61.9343 43.821 62.4636 43.8239 62.8463C43.8283 63.0207 43.8316 63.1613 43.8342 63.2705C43.8329 63.3195 43.8367 63.3686 43.8455 63.417C43.8546 63.3687 43.8587 63.3196 43.8576 63.2705C43.8605 63.1606 43.8646 63.0207 43.8693 62.8463C43.8756 62.4639 43.884 61.9347 43.8946 61.2871C43.9133 59.9685 43.9386 58.1511 44.0045 56.1425C44.0704 54.1339 44.1708 52.319 44.2656 51.0059C44.3151 50.3602 44.3557 49.8339 44.385 49.4511C44.3979 49.2771 44.4081 49.1369 44.4162 49.0281C44.4215 48.9787 44.4217 48.9288 44.4165 48.8794Z" fill="#263238"/>
<path d="M60.2979 80.8479L75.8141 72.4684L75.5493 64.869L85.344 61.892C85.344 61.892 86.2428 73.2885 84.806 78.2346C83.3691 83.1806 61.3384 85.7387 61.3384 85.7387L60.2979 80.8479Z" fill="#FFBF9D"/>
<path d="M57.3147 78.6043L55.8086 77.7047C55.5442 77.6225 55.261 77.6225 54.9966 77.7047L51.3372 78.8464C51.0029 78.9762 50.702 79.1793 50.4564 79.4407C50.2109 79.7021 50.027 80.0151 49.9183 80.3569L49.214 83.0149C49.214 83.0149 48.7477 84.8294 48.9686 85.1759C49.0635 85.3205 49.2085 85.425 49.3758 85.4691C49.5431 85.5133 49.7208 85.494 49.8747 85.415C49.8747 85.415 50.2044 86.1014 50.4867 86.1809C50.6439 86.2127 50.806 86.2121 50.9629 86.1789C51.1198 86.1458 51.2682 86.0809 51.3991 85.9883C51.5011 86.1077 51.6364 86.1941 51.7876 86.2364C51.9389 86.2787 52.0994 86.2749 52.2485 86.2256C52.3127 86.2029 52.3741 86.173 52.4316 86.1366C52.8345 85.8802 52.7939 84.9785 52.7939 84.9785L54.5681 84.1097C54.5681 84.1097 57.7568 85.1568 59.0322 86.0696C60.3075 86.9823 62.5377 85.3905 62.5377 85.3905L62.2279 80.6935L57.3147 78.6043Z" fill="#FFBF9D"/>
<path d="M79.029 75.4779C78.9707 75.5145 78.537 74.5666 77.621 73.725C76.705 72.8833 75.7245 72.5313 75.7556 72.469C75.979 72.5016 76.1946 72.5746 76.3918 72.6844C77.3915 73.1406 78.2208 73.9022 78.7601 74.8597C78.8867 75.0476 78.9778 75.2572 79.029 75.4779Z" fill="#FF9A6C"/>
<path d="M87.9323 61.0279C87.8572 61.067 87.7783 61.0985 87.6968 61.1217L87.01 61.3546L84.4736 62.1772L76.0835 64.8224L75.3279 65.0576L75.2125 65.0942L75.2044 64.9726C75.0993 63.3541 74.8946 61.8227 74.7404 60.4349C74.5803 59.0464 74.4496 57.7978 74.3646 56.7524C74.2796 55.7071 74.2364 54.8596 74.2181 54.2761C74.2089 53.9831 74.2089 53.7575 74.2082 53.6044C74.2034 53.5262 74.2067 53.4478 74.2181 53.3703C74.2351 53.4467 74.2442 53.5246 74.2452 53.6029C74.2565 53.7747 74.2712 53.9966 74.2895 54.2724C74.3298 54.8541 74.3921 55.6972 74.495 56.7407C74.5979 57.7842 74.7415 59.0277 74.9114 60.4148C75.0755 61.8022 75.2869 63.3306 75.3945 64.9616L75.2711 64.8763L76.0267 64.6404L84.4333 62.0487L86.9881 61.2839L87.684 61.0854C87.7646 61.058 87.8478 61.0387 87.9323 61.0279Z" fill="#263238"/>
<path d="M55.6473 29.8444C55.9694 29.9562 56.3119 29.9969 56.6512 29.9639C57.0116 29.9159 57.3455 29.7482 57.5992 29.4877C57.9055 29.167 58.0738 28.739 58.068 28.2955C58.0768 28.1903 58.064 28.0844 58.0303 27.9844C57.9966 27.8843 57.9427 27.7923 57.872 27.7139C57.7321 27.6062 57.4962 27.6597 57.286 27.675L56.1564 27.7758C55.8098 27.8225 55.4597 27.8373 55.1104 27.8201C55.448 27.7287 55.7934 27.6689 56.1421 27.6413L57.2673 27.5003C57.3739 27.489 57.479 27.4721 57.6003 27.4663C57.7353 27.4539 57.8706 27.4883 57.9834 27.5637C58.0797 27.6575 58.1544 27.7712 58.2021 27.897C58.2498 28.0227 58.2694 28.1574 58.2595 28.2915C58.2629 28.5358 58.2173 28.7784 58.1255 29.0048C58.0336 29.2313 57.8974 29.4371 57.7248 29.61C57.4401 29.8908 57.0659 30.0627 56.6674 30.0957C56.4043 30.1206 56.1391 30.083 55.8934 29.9858C55.7217 29.9192 55.6418 29.8536 55.6473 29.8444Z" fill="#263238"/>
<path d="M55.0757 82.1679C55.0782 82.2005 54.7328 82.217 54.2098 82.3756C53.5278 82.5763 52.9061 82.9427 52.4001 83.4421C51.8942 83.9415 51.5197 84.5583 51.31 85.2376C51.1445 85.7588 51.1236 86.1038 51.0903 86.1009C51.0552 85.7979 51.0857 85.4909 51.1797 85.2006C51.3624 84.4822 51.7378 83.8272 52.2654 83.3065C52.793 82.7857 53.4528 82.4189 54.1735 82.2456C54.4652 82.1554 54.7729 82.1289 55.0757 82.1679Z" fill="#FF9A6C"/>
<path d="M53.9062 80.0541C53.5528 80.0887 53.2058 80.1714 52.8748 80.2998C52.5253 80.4549 52.2058 80.6701 51.9309 80.9357C51.597 81.266 51.3173 81.647 51.102 82.0645C50.7314 82.8452 50.4251 83.6549 50.1863 84.4855C50.0928 84.8363 49.9558 85.1739 49.7783 85.4906C49.8529 85.1378 49.946 84.7893 50.0574 84.4464C50.2608 83.5937 50.5547 82.7651 50.9339 81.9748C51.1592 81.539 51.4564 81.1444 51.8129 80.8075C52.1075 80.5341 52.4515 80.3195 52.8264 80.1749C53.0786 80.0781 53.3456 80.0254 53.6157 80.0193C53.7139 80.0093 53.8131 80.0212 53.9062 80.0541Z" fill="#FF9A6C"/>
<path d="M22.2915 90.2188L13.0938 66.0652C13.0138 65.855 12.986 65.6284 13.0129 65.4051C13.0398 65.1817 13.1205 64.9682 13.2482 64.783C13.3759 64.5977 13.5466 64.4463 13.7458 64.3416C13.9449 64.237 14.1665 64.1823 14.3915 64.1822H43.9248C44.1888 64.1822 44.4474 64.2574 44.6702 64.3991C44.8929 64.5408 45.0707 64.743 45.1826 64.9822L53.8932 88.9838L72.4378 89.1629C73.2047 89.1629 73.9684 89.1629 73.9684 89.932C73.9684 90.699 73.3458 91.114 72.5795 91.114H23.5892C23.3077 91.1139 23.0328 91.0282 22.8011 90.8683C22.5693 90.7085 22.3916 90.482 22.2915 90.2188Z" fill="#455A64"/>
<path d="M34.7911 77.6388C34.7911 78.022 34.6774 78.3965 34.4645 78.7151C34.2515 79.0337 33.9489 79.282 33.5949 79.4286C33.2409 79.5752 32.8513 79.6135 32.4755 79.5387C32.0997 79.464 31.7545 79.2794 31.4835 79.0085C31.2126 78.7375 31.028 78.3923 30.9533 78.0165C30.8785 77.6407 30.9168 77.2512 31.0634 76.8971C31.21 76.5431 31.4583 76.2405 31.7769 76.0276C32.0955 75.8146 32.47 75.7009 32.8532 75.7009C33.3672 75.7009 33.8601 75.905 34.2235 76.2685C34.587 76.6319 34.7911 77.1248 34.7911 77.6388Z" fill="white"/>
<path d="M81.5124 91.1186C81.5124 91.1714 67.1338 91.2139 49.4012 91.2139C31.6624 91.2139 17.2871 91.1714 17.2871 91.1186C17.2871 91.0659 31.6624 91.0234 49.4012 91.0234C67.1338 91.0234 81.5124 91.0674 81.5124 91.1186Z" fill="#263238"/>
</svg>
