<svg width="24" height="25" viewBox="0 0 24 25" fill="none" xmlns="http://www.w3.org/2000/svg">
<path d="M14.3055 10.4437L9.69173 15.0574C9.09909 14.4647 8.73438 13.6532 8.73438 12.7505C8.73438 10.9452 10.1932 9.48633 11.9986 9.48633C12.9013 9.48633 13.7127 9.85104 14.3055 10.4437Z" stroke="#3C3C3C" stroke-width="1.5" stroke-linecap="round" stroke-linejoin="round"/>
<path d="M17.3047 7.06905C15.7091 5.86548 13.8855 5.20898 11.9981 5.20898C8.77945 5.20898 5.77965 7.10552 3.69163 10.388C2.87102 11.6736 2.87102 13.8345 3.69163 15.1202C4.41195 16.2508 5.2508 17.2264 6.1626 18.0106" stroke="#3C3C3C" stroke-width="1.5" stroke-linecap="round" stroke-linejoin="round"/>
<path d="M8.73438 19.6158C9.77379 20.0535 10.8771 20.2906 11.9986 20.2906C15.2172 20.2906 18.2171 18.3941 20.305 15.1116C21.1256 13.826 21.1256 11.665 20.305 10.3794C20.0041 9.90523 19.6759 9.45849 19.3386 9.03906" stroke="#3C3C3C" stroke-width="1.5" stroke-linecap="round" stroke-linejoin="round"/>
<path d="M15.1982 13.3867C14.9612 14.6723 13.9126 15.7209 12.627 15.958" stroke="#3C3C3C" stroke-width="1.5" stroke-linecap="round" stroke-linejoin="round"/>
<path d="M9.69196 15.0566L2.88086 21.8677" stroke="#3C3C3C" stroke-width="1.5" stroke-linecap="round" stroke-linejoin="round"/>
<path d="M21.1177 3.63281L14.3066 10.444" stroke="#3C3C3C" stroke-width="1.5" stroke-linecap="round" stroke-linejoin="round"/>
</svg>
