<svg width="24" height="25" viewBox="0 0 24 25" fill="none" xmlns="http://www.w3.org/2000/svg">
<path d="M15.0688 12.7538C15.0688 14.3924 13.6974 15.7165 12.0002 15.7165C10.3031 15.7165 8.93164 14.3924 8.93164 12.7538C8.93164 11.1152 10.3031 9.79102 12.0002 9.79102C13.6974 9.79102 15.0688 11.1152 15.0688 12.7538Z" stroke="#3C3C3C" stroke-width="1.5" stroke-linecap="round" stroke-linejoin="round"/>
<path d="M12.0004 19.5989C15.0261 19.5989 17.8461 17.8775 19.809 14.8982C20.5804 13.7313 20.5804 11.7699 19.809 10.603C17.8461 7.62372 15.0261 5.90234 12.0004 5.90234C8.97468 5.90234 6.15471 7.62372 4.19185 10.603C3.42042 11.7699 3.42042 13.7313 4.19185 14.8982C6.15471 17.8775 8.97468 19.5989 12.0004 19.5989Z" stroke="#3C3C3C" stroke-width="1.5" stroke-linecap="round" stroke-linejoin="round"/>
</svg>
