<svg width="28" height="28" viewBox="0 0 28 28" fill="none" xmlns="http://www.w3.org/2000/svg">
<path d="M16.9516 11.0482L11.0482 16.9516C10.2899 16.1932 9.82324 15.1549 9.82324 13.9999C9.82324 11.6899 11.6899 9.82324 13.9999 9.82324C15.1549 9.82324 16.1932 10.2899 16.9516 11.0482Z" stroke="#3C3C3C" stroke-width="1.5" stroke-linecap="round" stroke-linejoin="round"/>
<path d="M20.7898 6.73156C18.7482 5.19156 16.4148 4.35156 13.9998 4.35156C9.88148 4.35156 6.04315 6.77823 3.37148 10.9782C2.32148 12.6232 2.32148 15.3882 3.37148 17.0332C4.29315 18.4799 5.36648 19.7282 6.53315 20.7316" stroke="#3C3C3C" stroke-width="1.5" stroke-linecap="round" stroke-linejoin="round"/>
<path d="M9.82324 22.785C11.1532 23.345 12.5649 23.6484 13.9999 23.6484C18.1182 23.6484 21.9566 21.2217 24.6282 17.0217C25.6782 15.3767 25.6782 12.6117 24.6282 10.9667C24.2432 10.36 23.8232 9.78838 23.3916 9.25171" stroke="#3C3C3C" stroke-width="1.5" stroke-linecap="round" stroke-linejoin="round"/>
<path d="M18.0947 14.8167C17.7914 16.4617 16.4497 17.8033 14.8047 18.1067" stroke="#3C3C3C" stroke-width="1.5" stroke-linecap="round" stroke-linejoin="round"/>
<path d="M11.048 16.9517L2.33301 25.6667" stroke="#3C3C3C" stroke-width="1.5" stroke-linecap="round" stroke-linejoin="round"/>
<path d="M25.6671 2.33325L16.9521 11.0483" stroke="#3C3C3C" stroke-width="1.5" stroke-linecap="round" stroke-linejoin="round"/>
</svg>