<svg width="28" height="29" viewBox="0 0 28 29" fill="none" xmlns="http://www.w3.org/2000/svg">
<path d="M17.5799 13.2046C17.5799 15.1846 15.9799 16.7846 13.9999 16.7846C12.0199 16.7846 10.4199 15.1846 10.4199 13.2046C10.4199 11.2246 12.0199 9.62459 13.9999 9.62459C15.9799 9.62459 17.5799 11.2246 17.5799 13.2046Z" stroke="#3C3C3C" stroke-width="1.5" stroke-linecap="round" stroke-linejoin="round"/>
<path d="M13.9998 21.4746C17.5298 21.4746 20.8198 19.3946 23.1098 15.7946C24.0098 14.3846 24.0098 12.0146 23.1098 10.6046C20.8198 7.00459 17.5298 4.92459 13.9998 4.92459C10.4698 4.92459 7.17984 7.00459 4.88984 10.6046C3.98984 12.0146 3.98984 14.3846 4.88984 15.7946C7.17984 19.3946 10.4698 21.4746 13.9998 21.4746Z" stroke="#3C3C3C" stroke-width="1.5" stroke-linecap="round" stroke-linejoin="round"/>
</svg>