<svg width="28" height="28" viewBox="0 0 28 28" fill="none" xmlns="http://www.w3.org/2000/svg">
<g clip-path="url(#clip0_1531_17968)">
<path d="M14 28C21.732 28 28 21.732 28 14C28 6.26801 21.732 0 14 0C6.26801 0 0 6.26801 0 14C0 21.732 6.26801 28 14 28Z" fill="#F0F0F0"/>
<path d="M2.89322 5.47632C1.79351 6.90711 0.964281 8.55621 0.481445 10.3477H7.76462L2.89322 5.47632Z" fill="#0052B4"/>
<path d="M27.5165 10.3477C27.0336 8.55621 26.2043 6.90711 25.1047 5.47632L20.2334 10.3477H27.5165Z" fill="#0052B4"/>
<path d="M0.481445 17.6521C0.964336 19.4436 1.79356 21.0927 2.89322 22.5234L7.76445 17.6521H0.481445Z" fill="#0052B4"/>
<path d="M22.5227 2.89401C21.0919 1.7943 19.4429 0.965068 17.6514 0.482178V7.7653L22.5227 2.89401Z" fill="#0052B4"/>
<path d="M5.47559 25.1059C6.90637 26.2056 8.55548 27.0348 10.3469 27.5177V20.2346L5.47559 25.1059Z" fill="#0052B4"/>
<path d="M10.3469 0.482178C8.55542 0.965068 6.90632 1.79429 5.47559 2.89395L10.3469 7.76524V0.482178Z" fill="#0052B4"/>
<path d="M17.6514 27.5177C19.4428 27.0348 21.0919 26.2056 22.5227 25.1059L17.6514 20.2346V27.5177Z" fill="#0052B4"/>
<path d="M20.2334 17.6521L25.1047 22.5234C26.2043 21.0927 27.0336 19.4436 27.5165 17.6521H20.2334Z" fill="#0052B4"/>
<path d="M27.8815 12.1739H15.8262H15.8261V0.118508C15.2283 0.0406875 14.6189 0 14 0C13.381 0 12.7717 0.0406875 12.1739 0.118508V12.1738V12.1739H0.118508C0.0406875 12.7717 0 13.3811 0 14C0 14.619 0.0406875 15.2283 0.118508 15.8261H12.1738H12.1739V27.8815C12.7717 27.9593 13.381 28 14 28C14.6189 28 15.2283 27.9594 15.8261 27.8815V15.8262V15.8261H27.8815C27.9593 15.2283 28 14.619 28 14C28 13.3811 27.9593 12.7717 27.8815 12.1739Z" fill="#D80027"/>
<path d="M17.6523 17.6522L23.8996 23.8994C24.187 23.6122 24.461 23.3119 24.7226 23.0006L19.374 17.6521H17.6523V17.6522Z" fill="#D80027"/>
<path d="M10.3479 17.6521H10.3478L4.10059 23.8993C4.3878 24.1867 4.68809 24.4607 4.99937 24.7223L10.3479 19.3736V17.6521Z" fill="#D80027"/>
<path d="M10.3476 10.3478V10.3477L4.10028 4.10034C3.81295 4.38756 3.53886 4.68785 3.27734 4.99913L8.62595 10.3477L10.3476 10.3478Z" fill="#D80027"/>
<path d="M17.6523 10.3479L23.8997 4.10047C23.6125 3.81314 23.3122 3.53905 23.0009 3.27759L17.6523 8.62619V10.3479Z" fill="#D80027"/>
</g>
<defs>
<clipPath id="clip0_1531_17968">
<rect width="28" height="28" fill="white"/>
</clipPath>
</defs>
</svg>
