<svg width="24" height="24" viewBox="0 0 24 24" fill="none" xmlns="http://www.w3.org/2000/svg">
<path d="M12 6.5V11.5" stroke="#292D32" stroke-width="1.5" stroke-linecap="round" stroke-linejoin="round"/>
<path d="M8 11.5H12" stroke="#292D32" stroke-width="1.5" stroke-linecap="round" stroke-linejoin="round"/>
<path d="M12 20.5C7.17 20.5 3.25 16.58 3.25 11.75C3.25 6.92 7.17 3 12 3C16.83 3 20.75 6.92 20.75 11.75" stroke="#292D32" stroke-width="1.5" stroke-linecap="round" stroke-linejoin="round"/>
<path d="M17.73 19.1688H18.016C18.302 19.1688 18.5396 18.9136 18.5396 18.6056C18.5396 18.2228 18.4032 18.148 18.1788 18.0688L17.7344 17.9148V19.1688H17.73Z" fill="#292D32"/>
<path d="M17.3868 13C14.958 13.0088 12.9912 14.9844 13 17.4132C13.0088 19.842 14.9844 21.8087 17.4132 21.7999C19.842 21.7911 21.8088 19.8156 21.8 17.3868C21.7912 14.958 19.8156 12.9956 17.3868 13ZM18.3944 17.444C18.7376 17.5628 19.1996 17.818 19.1996 18.6056C19.1996 19.2832 18.6672 19.8288 18.016 19.8288H17.73V20.084C17.73 20.2643 17.5804 20.4139 17.4 20.4139C17.2196 20.4139 17.07 20.2643 17.07 20.084V19.8288H16.9116C16.19 19.8288 15.6048 19.2216 15.6048 18.4736C15.6048 18.2932 15.7544 18.1436 15.9348 18.1436C16.1152 18.1436 16.2648 18.2932 16.2648 18.4736C16.2648 18.8564 16.5552 19.1688 16.9116 19.1688H17.07V17.6816L16.4056 17.444C16.0624 17.3252 15.6004 17.07 15.6004 16.2824C15.6004 15.6048 16.1328 15.0592 16.784 15.0592H17.07V14.804C17.07 14.6236 17.2196 14.474 17.4 14.474C17.5804 14.474 17.73 14.6236 17.73 14.804V15.0592H17.8884C18.61 15.0592 19.1952 15.6664 19.1952 16.4144C19.1952 16.5948 19.0456 16.7444 18.8652 16.7444C18.6848 16.7444 18.5352 16.5948 18.5352 16.4144C18.5352 16.0316 18.2448 15.7192 17.8884 15.7192H17.73V17.2064L18.3944 17.444Z" fill="#292D32"/>
<path d="M16.2648 16.2868C16.2648 16.6696 16.4012 16.7444 16.6256 16.8236L17.07 16.9776V15.7192H16.784C16.498 15.7192 16.2648 15.9744 16.2648 16.2868Z" fill="#292D32"/>
</svg>
