<svg width="28" height="28" viewBox="0 0 28 28" fill="none" xmlns="http://www.w3.org/2000/svg">
<g clip-path="url(#clip0_1531_18615)">
<mask id="mask0_1531_18615" style="mask-type:luminance" maskUnits="userSpaceOnUse" x="-1" y="0" width="29" height="29">
<path d="M27.9961 14.001C27.9961 17.7143 26.521 21.2755 23.8953 23.9012C21.2696 26.5269 17.7084 28.002 13.9951 28.002C10.2818 28.002 6.72063 26.5269 4.09494 23.9012C1.46924 21.2755 -0.00585937 17.7143 -0.00585938 14.001C-0.00585938 10.2877 1.46924 6.72649 4.09494 4.10079C6.72063 1.4751 10.2818 0 13.9951 0C17.7084 0 21.2696 1.4751 23.8953 4.10079C26.521 6.72649 27.9961 10.2877 27.9961 14.001Z" fill="white"/>
</mask>
<g mask="url(#mask0_1531_18615)">
<path d="M0.000976562 27.999L0.000976563 18.6663H27.9992V27.999H0.000976562Z" fill="#27AE60"/>
<path d="M0.000976562 18.6663L0.000976563 9.33352L27.9992 9.33352V18.6663H0.000976562Z" fill="white"/>
<path d="M0.000976562 9.3335L0.000976563 0.000752449L27.9992 0.000752449V9.3335L0.000976562 9.3335Z" fill="#F39C12"/>
<path d="M13.9957 18.0854C16.2499 18.0854 18.0773 16.258 18.0773 14.0037C18.0773 11.7495 16.2499 9.92212 13.9957 9.92212C11.7415 9.92212 9.91406 11.7495 9.91406 14.0037C9.91406 16.258 11.7415 18.0854 13.9957 18.0854Z" fill="#000088"/>
<path d="M13.9952 17.575C15.9677 17.575 17.5667 15.976 17.5667 14.0035C17.5667 12.0311 15.9677 10.4321 13.9952 10.4321C12.0228 10.4321 10.4238 12.0311 10.4238 14.0035C10.4238 15.976 12.0228 17.575 13.9952 17.575Z" fill="white"/>
<path d="M13.9955 14.7179C14.39 14.7179 14.7098 14.3981 14.7098 14.0036C14.7098 13.6091 14.39 13.2893 13.9955 13.2893C13.601 13.2893 13.2812 13.6091 13.2812 14.0036C13.2812 14.3981 13.601 14.7179 13.9955 14.7179Z" fill="#000088"/>
<path d="M17.514 14.6468C17.6117 14.6598 17.7014 14.591 17.7143 14.4933C17.7272 14.3955 17.6585 14.3058 17.5607 14.2929C17.463 14.28 17.3733 14.3488 17.3604 14.4465C17.3475 14.5442 17.4162 14.6339 17.514 14.6468Z" fill="#000088"/>
<path d="M13.9965 17.5751L14.1189 15.4323L13.9965 14.4119L13.874 15.4323L13.9965 17.5751Z" fill="#000088"/>
<path d="M17.2282 15.5361C17.3193 15.5739 17.4237 15.5307 17.4615 15.4396C17.4993 15.3486 17.4561 15.2441 17.3651 15.2064C17.274 15.1686 17.1696 15.2118 17.1318 15.3028C17.094 15.3939 17.1372 15.4983 17.2282 15.5361Z" fill="#000088"/>
<path d="M13.0715 17.4539L13.7447 15.4156L13.8907 14.3982L13.5082 15.3522L13.0715 17.4539Z" fill="#000088"/>
<path d="M16.721 16.3196C16.7991 16.3796 16.9112 16.3649 16.9712 16.2868C17.0313 16.2086 17.0166 16.0965 16.9384 16.0365C16.8602 15.9764 16.7482 15.9911 16.6881 16.0693C16.6281 16.1475 16.6428 16.2595 16.721 16.3196Z" fill="#000088"/>
<path d="M12.2109 17.0967L13.3884 15.3023L13.7926 14.3574L13.1763 15.1798L12.2109 17.0967Z" fill="#000088"/>
<path d="M16.0283 16.9462C16.0883 17.0245 16.2003 17.0393 16.2786 16.9793C16.3568 16.9194 16.3716 16.8073 16.3117 16.7291C16.2517 16.6508 16.1397 16.636 16.0614 16.696C15.9832 16.7559 15.9684 16.868 16.0283 16.9462Z" fill="#000088"/>
<path d="M11.4703 16.529L13.0725 15.1005L13.7077 14.2924L12.8994 14.9273L11.4703 16.529Z" fill="#000088"/>
<path d="M15.1924 17.3712C15.2301 17.4623 15.3345 17.5056 15.4256 17.4679C15.5167 17.4303 15.56 17.3259 15.5223 17.2348C15.4846 17.1437 15.3803 17.1004 15.2892 17.138C15.1981 17.1757 15.1548 17.2801 15.1924 17.3712Z" fill="#000088"/>
<path d="M10.898 15.7892L12.815 14.8238L13.6374 14.2076L12.6925 14.6118L10.898 15.7892Z" fill="#000088"/>
<path d="M14.2796 17.5681C14.2924 17.6658 14.382 17.7347 14.4797 17.7219C14.5775 17.7091 14.6463 17.6195 14.6335 17.5217C14.6207 17.424 14.5311 17.3551 14.4334 17.3679C14.3356 17.3807 14.2668 17.4703 14.2796 17.5681Z" fill="#000088"/>
<path d="M10.5403 14.9276L12.642 14.4915L13.5961 14.1093L12.5787 14.255L10.5403 14.9276Z" fill="#000088"/>
<path d="M13.3532 17.5208C13.3403 17.6185 13.409 17.7082 13.5067 17.7211C13.6045 17.7341 13.6942 17.6653 13.7071 17.5676C13.72 17.4698 13.6512 17.3802 13.5535 17.3672C13.4558 17.3543 13.3661 17.4231 13.3532 17.5208Z" fill="#000088"/>
<path d="M10.4248 14.0035L12.5675 14.126L13.5879 14.0035L12.5675 13.8811L10.4248 14.0035Z" fill="#000088"/>
<path d="M12.4642 17.2348C12.4264 17.3259 12.4696 17.4303 12.5606 17.4681C12.6517 17.5059 12.7561 17.4627 12.7939 17.3716C12.8317 17.2806 12.7885 17.1762 12.6974 17.1384C12.6064 17.1006 12.502 17.1438 12.4642 17.2348Z" fill="#000088"/>
<path d="M10.5465 13.0788L12.5847 13.7521L13.6021 13.8981L12.6481 13.5155L10.5465 13.0788Z" fill="#000088"/>
<path d="M11.6833 16.7283C11.6233 16.8065 11.638 16.9186 11.7161 16.9786C11.7943 17.0387 11.9064 17.024 11.9665 16.9458C12.0265 16.8676 12.0118 16.7555 11.9336 16.6955C11.8554 16.6354 11.7434 16.6501 11.6833 16.7283Z" fill="#000088"/>
<path d="M10.906 12.2178L12.7008 13.3953L13.6458 13.7994L12.8232 13.1832L10.906 12.2178Z" fill="#000088"/>
<path d="M11.0572 16.0361C10.9789 16.0961 10.9641 16.2082 11.024 16.2864C11.084 16.3647 11.1961 16.3795 11.2743 16.3195C11.3526 16.2596 11.3674 16.1475 11.3074 16.0692C11.2475 15.991 11.1354 15.9762 11.0572 16.0361Z" fill="#000088"/>
<path d="M11.4742 11.4776L12.903 13.0798L13.7112 13.715L13.0762 12.9067L11.4742 11.4776Z" fill="#000088"/>
<path d="M10.6263 15.2059C10.5352 15.2435 10.4919 15.3479 10.5296 15.439C10.5673 15.5301 10.6717 15.5734 10.7628 15.5358C10.8539 15.4981 10.8972 15.3937 10.8595 15.3026C10.8218 15.2115 10.7174 15.1682 10.6263 15.2059Z" fill="#000088"/>
<path d="M12.2086 10.9108L13.1741 12.8278L13.7904 13.6503L13.3862 12.7054L12.2086 10.9108Z" fill="#000088"/>
<path d="M10.4299 14.2927C10.3322 14.3055 10.2633 14.3952 10.2761 14.4929C10.2889 14.5907 10.3786 14.6595 10.4763 14.6467C10.5741 14.6339 10.6429 14.5443 10.6301 14.4465C10.6173 14.3488 10.5277 14.2799 10.4299 14.2927Z" fill="#000088"/>
<path d="M13.07 10.5534L13.5062 12.6554L13.8885 13.6096L13.7428 12.592L13.07 10.5534Z" fill="#000088"/>
<path d="M10.4772 13.3607C10.3795 13.3478 10.2898 13.4166 10.2769 13.5143C10.2639 13.612 10.3327 13.7017 10.4304 13.7147C10.5282 13.7276 10.6179 13.6588 10.6308 13.5611C10.6437 13.4633 10.575 13.3736 10.4772 13.3607Z" fill="#000088"/>
<path d="M13.9945 10.432L13.8722 12.575L13.9947 13.5955L14.1171 12.575L13.9945 10.432Z" fill="#000088"/>
<path d="M10.763 12.4715C10.6719 12.4337 10.5675 12.4769 10.5297 12.5679C10.4919 12.659 10.5351 12.7634 10.6261 12.8012C10.7172 12.839 10.8216 12.7958 10.8594 12.7047C10.8972 12.6137 10.854 12.5092 10.763 12.4715Z" fill="#000088"/>
<path d="M14.9196 10.5534L14.2464 12.5919L14.1005 13.6094L14.483 12.6553L14.9196 10.5534Z" fill="#000088"/>
<path d="M11.2702 11.6882C11.1921 11.6282 11.08 11.6429 11.0199 11.721C10.9599 11.7992 10.9746 11.9113 11.0528 11.9713C11.131 12.0314 11.243 12.0167 11.3031 11.9385C11.3631 11.8603 11.3484 11.7483 11.2702 11.6882Z" fill="#000088"/>
<path d="M15.7812 10.9108L14.6037 12.7055L14.1996 13.6504L14.8158 12.8279L15.7812 10.9108Z" fill="#000088"/>
<path d="M11.9639 11.0613C11.9039 10.9831 11.7918 10.9682 11.7136 11.0282C11.6353 11.0882 11.6205 11.2002 11.6805 11.2785C11.7404 11.3567 11.8525 11.3716 11.9308 11.3116C12.009 11.2516 12.0238 11.1396 11.9639 11.0613Z" fill="#000088"/>
<path d="M16.5219 11.4785L14.9196 12.9072L14.2845 13.7154L15.0928 13.0804L16.5219 11.4785Z" fill="#000088"/>
<path d="M12.7939 10.6356C12.7563 10.5445 12.6519 10.5012 12.5608 10.5389C12.4696 10.5765 12.4263 10.6809 12.464 10.772C12.5017 10.8632 12.6061 10.9065 12.6972 10.8688C12.7883 10.8311 12.8316 10.7267 12.7939 10.6356Z" fill="#000088"/>
<path d="M17.0887 12.2178L15.1715 13.1832L14.3489 13.7995L15.294 13.3953L17.0887 12.2178Z" fill="#000088"/>
<path d="M13.7068 10.439C13.694 10.3413 13.6044 10.2724 13.5066 10.2852C13.4089 10.298 13.34 10.3876 13.3528 10.4853C13.3656 10.5831 13.4552 10.652 13.553 10.6392C13.6507 10.6264 13.7196 10.5368 13.7068 10.439Z" fill="#000088"/>
<path d="M17.4465 13.0798L15.3444 13.5158L14.3902 13.898L15.4078 13.7524L17.4465 13.0798Z" fill="#000088"/>
<path d="M14.6381 10.4861C14.651 10.3883 14.5823 10.2986 14.4845 10.2857C14.3868 10.2727 14.2971 10.3415 14.2841 10.4392C14.2712 10.537 14.34 10.6267 14.4377 10.6396C14.5355 10.6525 14.6252 10.5838 14.6381 10.4861Z" fill="#000088"/>
<path d="M17.5668 14.004L15.4238 13.8814L14.4033 14.0038L15.4238 14.1263L17.5668 14.004Z" fill="#000088"/>
<path d="M15.5271 10.7723C15.5649 10.6812 15.5217 10.5768 15.4307 10.539C15.3396 10.5012 15.2351 10.5444 15.1973 10.6354C15.1595 10.7265 15.2027 10.8309 15.2938 10.8687C15.3848 10.9065 15.4893 10.8634 15.5271 10.7723Z" fill="#000088"/>
<path d="M17.445 14.929L15.4066 14.2556L14.3891 14.1095L15.3432 14.4922L17.445 14.929Z" fill="#000088"/>
<path d="M16.3118 11.2786C16.3719 11.2004 16.3572 11.0883 16.279 11.0283C16.2008 10.9682 16.0887 10.9829 16.0287 11.0611C15.9686 11.1393 15.9833 11.2513 16.0615 11.3114C16.1397 11.3714 16.2517 11.3568 16.3118 11.2786Z" fill="#000088"/>
<path d="M17.0889 15.7893L15.2943 14.6117L14.3493 14.2074L15.1718 14.8238L17.0889 15.7893Z" fill="#000088"/>
<path d="M16.9379 11.971C17.0162 11.911 17.031 11.799 16.9711 11.7207C16.9111 11.6424 16.7991 11.6276 16.7208 11.6876C16.6425 11.7475 16.6277 11.8596 16.6877 11.9378C16.7476 12.0161 16.8597 12.0309 16.9379 11.971Z" fill="#000088"/>
<path d="M16.5206 16.5295L15.092 14.9271L14.2839 14.2918L14.9188 15.1002L16.5206 16.5295Z" fill="#000088"/>
<path d="M17.3639 12.8015C17.455 12.7638 17.4983 12.6594 17.4606 12.5683C17.423 12.4772 17.3186 12.4339 17.2275 12.4716C17.1364 12.5093 17.093 12.6136 17.1307 12.7048C17.1684 12.7959 17.2728 12.8392 17.3639 12.8015Z" fill="#000088"/>
<path d="M15.7814 17.0964L14.816 15.1793L14.1998 14.3567L14.6039 15.3017L15.7814 17.0964Z" fill="#000088"/>
<path d="M17.5603 13.7149C17.658 13.7021 17.7269 13.6124 17.7141 13.5147C17.7013 13.4169 17.6117 13.3481 17.5139 13.3609C17.4162 13.3737 17.3473 13.4633 17.3601 13.561C17.3729 13.6588 17.4625 13.7277 17.5603 13.7149Z" fill="#000088"/>
<path d="M14.9199 17.4537L14.4839 15.3517L14.1017 14.3975L14.2473 15.4151L14.9199 17.4537Z" fill="#000088"/>
</g>
</g>
<defs>
<clipPath id="clip0_1531_18615">
<rect width="28" height="28" fill="white"/>
</clipPath>
</defs>
</svg>
