<svg width="23" height="22" viewBox="0 0 23 22" fill="none" xmlns="http://www.w3.org/2000/svg">
<circle cx="11.422" cy="10.6569" r="10.6271" fill="#ECECEC"/>
<g clip-path="url(#clip0_3122_16693)">
<path d="M14.6221 15.0547L14.5992 15.7494C14.1546 16.0426 13.7978 16.2696 13.5305 16.4304C13.2628 16.5915 12.9378 16.712 12.5556 16.7923C11.9686 16.9156 11.4818 16.8677 11.0961 16.6505C10.7103 16.4321 10.471 16.103 10.3784 15.6622C10.3426 15.4915 10.3175 15.3135 10.3045 15.1295C10.2917 14.9453 10.2887 14.7353 10.2953 14.4986L10.4507 12.2265C10.4614 12.0098 10.4664 11.8056 10.4644 11.6138C10.4632 11.4231 10.4458 11.2511 10.414 11.0996C10.3564 10.8257 10.2595 10.6461 10.1239 10.5621C9.98847 10.4784 9.76158 10.4691 9.44174 10.5363C9.28509 10.5692 9.12936 10.6281 8.97543 10.7111C8.82083 10.7945 8.68982 10.8711 8.58072 10.9397L8.60385 10.2445C8.96686 9.99944 9.31723 9.78132 9.65606 9.5902C9.99483 9.39876 10.3257 9.26907 10.6501 9.20092C11.233 9.07845 11.7125 9.12483 12.0876 9.34025C12.4627 9.55588 12.6974 9.88827 12.792 10.3387C12.8116 10.4319 12.8357 10.5983 12.8628 10.8377C12.8904 11.0775 12.8952 11.3016 12.8773 11.5101L12.7227 13.773C12.7093 13.955 12.706 14.1605 12.7137 14.3893C12.7198 14.617 12.736 14.7885 12.7596 14.9009C12.8192 15.1846 12.9231 15.365 13.0715 15.4413C13.2209 15.5174 13.4516 15.5224 13.7641 15.4567C13.9108 15.4259 14.0722 15.3648 14.247 15.2748C14.4212 15.1848 14.5466 15.1116 14.6221 15.0547ZM12.8909 6.05409C12.9691 6.42628 12.8956 6.77362 12.6686 7.0942C12.4426 7.41557 12.1314 7.618 11.735 7.70126C11.3374 7.78479 10.9702 7.72489 10.6307 7.52234C10.2919 7.32051 10.0829 7.03263 10.0047 6.66044C9.9267 6.28898 10.0021 5.94071 10.2303 5.6164C10.4587 5.29249 10.7712 5.08893 11.1687 5.00542C11.5649 4.92218 11.9316 4.98337 12.2682 5.18826C12.6059 5.39367 12.8129 5.68273 12.8909 6.05409Z" fill="black"/>
</g>
<defs>
<clipPath id="clip0_3122_16693">
<rect width="5.74436" height="11.8202" fill="white" transform="translate(7.64062 5.74658) rotate(-11.8645)"/>
</clipPath>
</defs>
</svg>
