<svg width="22" height="22" viewBox="0 0 22 22" fill="none" xmlns="http://www.w3.org/2000/svg">
<path d="M2.80231 2.88061C1.32471 4.4151 1.62713 6.04515 1.62713 10.9972C1.62713 15.1095 0.909479 19.2321 4.66537 20.2026C5.83821 20.5041 16.23 20.5041 17.4012 20.201C18.965 19.7976 20.2374 18.5294 20.4113 16.3182C20.4356 16.0095 20.4356 5.99032 20.4105 5.67543C20.2256 3.32004 18.7754 1.96257 16.8646 1.68763C16.4266 1.62419 16.3389 1.60539 14.0919 1.60147C6.12182 1.60539 4.37471 1.25055 2.80231 2.88061Z" fill="url(#paint0_linear_1846_20985)"/>
<path d="M10.9993 3.93541C8.10289 3.93541 5.35243 3.67795 4.30186 6.37204C3.86791 7.48475 3.93093 8.92983 3.93093 10.999C3.93093 12.8147 3.87269 14.5213 4.30186 15.6252C5.35003 18.3209 8.12284 18.0626 10.9977 18.0626C13.7713 18.0626 16.6311 18.3512 17.6944 15.6252C18.1292 14.5013 18.0654 13.0778 18.0654 10.999C18.0654 8.23957 18.2177 6.45813 16.8784 5.12065C15.5223 3.76563 13.6884 3.93541 10.9961 3.93541H10.9993ZM10.366 5.20832C16.4077 5.19876 17.1767 4.52763 16.7523 13.8509C16.6016 17.1484 14.0888 16.7865 11.0001 16.7865C5.36838 16.7865 5.20645 16.6255 5.20645 10.9958C5.20645 5.30078 5.65316 5.21151 10.366 5.20673V5.20832ZM14.7725 6.38081C14.3042 6.38081 13.9245 6.76021 13.9245 7.22809C13.9245 7.69597 14.3042 8.07538 14.7725 8.07538C15.2407 8.07538 15.6204 7.69597 15.6204 7.22809C15.6204 6.76021 15.2407 6.38081 14.7725 6.38081ZM10.9993 7.37157C8.99472 7.37157 7.36981 8.99599 7.36981 10.999C7.36981 13.0021 8.99472 14.6257 10.9993 14.6257C13.004 14.6257 14.6281 13.0021 14.6281 10.999C14.6281 8.99599 13.004 7.37157 10.9993 7.37157ZM10.9993 8.64448C14.1144 8.64448 14.1183 13.3536 10.9993 13.3536C7.88512 13.3536 7.88033 8.64448 10.9993 8.64448Z" fill="white"/>
<defs>
<linearGradient id="paint0_linear_1846_20985" x1="2.83837" y1="19.2" x2="20.3108" y2="4.07486" gradientUnits="userSpaceOnUse">
<stop stop-color="#FFDD55"/>
<stop offset="0.5" stop-color="#FF543E"/>
<stop offset="1" stop-color="#C837AB"/>
</linearGradient>
</defs>
</svg>
