<svg width="18" height="18" viewBox="0 0 18 18" fill="none" xmlns="http://www.w3.org/2000/svg">
<path d="M9.78284 7.21716C9.85786 7.29217 9.9 7.39391 9.9 7.5C9.9 7.60609 9.85786 7.70783 9.78284 7.78284C9.70783 7.85786 9.60609 7.9 9.5 7.9H5.5C5.39391 7.9 5.29217 7.85786 5.21716 7.78284C5.14214 7.70783 5.1 7.60609 5.1 7.5C5.1 7.39391 5.14214 7.29217 5.21716 7.21716C5.29217 7.14214 5.39391 7.1 5.5 7.1H9.5C9.60609 7.1 9.70783 7.14214 9.78284 7.21716ZM9.11618 9.21716C9.19119 9.29217 9.23333 9.39391 9.23333 9.5C9.23333 9.60609 9.19119 9.70783 9.11618 9.78284C9.04116 9.85786 8.93942 9.9 8.83333 9.9H5.5C5.39391 9.9 5.29217 9.85786 5.21716 9.78284C5.14214 9.70783 5.1 9.60609 5.1 9.5C5.1 9.39391 5.14214 9.29217 5.21716 9.21716C5.29217 9.14214 5.39391 9.1 5.5 9.1H8.83333C8.93942 9.1 9.04116 9.14214 9.11618 9.21716ZM9.5 11.1C9.60609 11.1 9.70783 11.1421 9.78284 11.2172C9.85786 11.2922 9.9 11.3939 9.9 11.5C9.9 11.6061 9.85786 11.7078 9.78284 11.7828C9.70783 11.8579 9.60609 11.9 9.5 11.9H5.5C5.39391 11.9 5.29217 11.8579 5.21716 11.7828C5.14214 11.7078 5.1 11.6061 5.1 11.5C5.1 11.3939 5.14214 11.2922 5.21716 11.2172C5.29217 11.1421 5.39391 11.1 5.5 11.1H9.5Z" fill="black" stroke="#F6F7F7" stroke-width="0.2"/>
<path d="M13.0282 9.8794V9.7794V4.38337C13.0282 3.48725 11.9691 2.95159 11.1983 3.48154L11.0727 3.56793L11.0724 3.56809C10.7804 3.76765 10.4315 3.87435 10.0742 3.87383C9.71685 3.8733 9.36825 3.76558 9.07687 3.56516M13.0282 9.8794L13.1282 4.38337C13.1282 3.39982 11.973 2.82753 11.1416 3.39913L11.016 3.48553C10.7409 3.67355 10.4117 3.77432 10.0743 3.77383C9.73691 3.77333 9.40807 3.67159 9.13354 3.48277C8.67522 3.16874 8.12665 3 7.5641 3C7.00156 3 6.45299 3.16874 5.99467 3.48277C5.72014 3.67159 5.39129 3.77333 5.05389 3.77383C4.7165 3.77432 4.38733 3.67355 4.11221 3.48553L3.98656 3.39913L3.92991 3.48154L4.05554 3.56793L4.05578 3.56809C4.34779 3.76765 4.69673 3.87435 5.05404 3.87383C5.41132 3.8733 5.75989 3.7656 6.05126 3.56521M13.0282 9.8794H13.1282H15.4615C15.579 9.8794 15.691 9.92437 15.7729 10.0033C15.8548 10.0821 15.9 10.1881 15.9 10.2978V14.0993C15.9 14.5756 15.7035 15.0332 15.3524 15.3712C15.0011 15.7094 14.524 15.9 14.0256 15.9H4.69231C4.00358 15.9 3.3438 15.6366 2.85791 15.1688C2.37216 14.7012 2.1 14.0677 2.1 13.4081V4.38337C2.1 3.48661 3.15907 2.95156 3.9299 3.48153L13.0282 9.8794ZM9.07687 3.56516L9.13354 3.48277L9.07702 3.56526C9.07697 3.56523 9.07692 3.56519 9.07687 3.56516ZM9.07687 3.56516C8.63544 3.26275 8.10668 3.1 7.5641 3.1C7.02149 3.1 6.49271 3.26277 6.05126 3.56521M6.05126 3.56521C6.05129 3.56519 6.05131 3.56518 6.05134 3.56516L5.9947 3.48282L6.05119 3.56526C6.05121 3.56524 6.05124 3.56523 6.05126 3.56521ZM6.56429 4.24344L6.56403 4.24362C6.12378 4.54658 5.59586 4.71 5.0539 4.7106C4.51194 4.71119 3.98363 4.54894 3.54266 4.24695L3.41717 4.16066L3.41705 4.16058C3.37535 4.13199 3.32663 4.11521 3.27625 4.11172C3.22587 4.10822 3.17531 4.1181 3.13002 4.14051C3.08471 4.16293 3.04614 4.19717 3.01895 4.23994C2.99173 4.28275 2.97706 4.33228 2.97692 4.3831V4.38337V13.4081C2.97692 13.8483 3.15861 14.2697 3.4807 14.5798C3.80267 14.8897 4.23856 15.0632 4.69231 15.0632H12.2667H12.4331L12.355 14.9163C12.2246 14.6711 12.1513 14.3934 12.1513 14.0993V4.38337L12.1513 4.3831C12.1511 4.33228 12.1365 4.28275 12.1093 4.23994L12.0249 4.2936L12.1093 4.23994C12.0821 4.19717 12.0435 4.16293 11.9982 4.14051C11.9529 4.1181 11.9023 4.10822 11.852 4.11172C11.8016 4.11521 11.7529 4.13199 11.7112 4.16058L11.711 4.16066L11.5855 4.24695C11.5855 4.24695 11.5855 4.24696 11.5855 4.24696C11.1446 4.54895 10.6163 4.71119 10.0743 4.7106C9.53234 4.71 9.00443 4.54658 8.56418 4.24362L8.56391 4.24344C8.27141 4.04355 7.92202 3.93642 7.5641 3.93642C7.20619 3.93642 6.85679 4.04355 6.56429 4.24344ZM13.1282 10.7162H13.0282V10.8162V14.0993C13.0282 14.3562 13.1343 14.6018 13.3217 14.7822C13.509 14.9626 13.7623 15.0632 14.0256 15.0632C14.289 15.0632 14.5423 14.9626 14.7296 14.7822C14.917 14.6018 15.0231 14.3562 15.0231 14.0993V10.8162V10.7162H14.9231H13.1282Z" fill="black" stroke="#F6F7F7" stroke-width="0.2"/>
</svg>
