<svg width="24" height="24" viewBox="0 0 24 24" fill="none" xmlns="http://www.w3.org/2000/svg">
<path d="M18.3633 15.536L16.9493 14.12L18.3633 12.706C19.2942 11.7669 19.8152 10.4973 19.8123 9.17502C19.8094 7.85274 19.2828 6.58544 18.3478 5.65044C17.4128 4.71544 16.1455 4.18888 14.8232 4.18598C13.501 4.18309 12.2314 4.70409 11.2923 5.63499L9.87728 7.04999L8.46328 5.63599L9.87728 4.22199C11.1901 2.90917 12.9707 2.17163 14.8273 2.17163C16.6839 2.17163 18.4645 2.90917 19.7773 4.22199C21.0901 5.53481 21.8276 7.31538 21.8276 9.17199C21.8276 11.0286 21.0901 12.8092 19.7773 14.122L18.3633 15.536ZM15.5343 18.364L14.1203 19.778C12.8075 21.0908 11.0269 21.8283 9.17028 21.8283C7.31367 21.8283 5.5331 21.0908 4.22028 19.778C2.90746 18.4652 2.16992 16.6846 2.16992 14.828C2.16992 12.9714 2.90746 11.1908 4.22028 9.87799L5.63528 8.46399L7.04928 9.87999L5.63528 11.294C4.71715 12.2356 4.20694 13.5009 4.21518 14.816C4.22342 16.1311 4.74945 17.39 5.6793 18.32C6.60916 19.25 7.86797 19.7762 9.18305 19.7846C10.4981 19.793 11.7636 19.283 12.7053 18.365L14.1203 16.951L15.5343 18.364ZM14.8273 7.75699L16.2423 9.17199L9.17028 16.242L7.75628 14.828L14.8273 7.75699Z" fill="black"/>
</svg>
