<svg width="17" height="25" viewBox="0 0 17 25" fill="none" xmlns="http://www.w3.org/2000/svg">
<path d="M8.5 0C3.81074 0 0 3.81083 0 8.5C0 10.0867 0.439261 11.6309 1.27505 12.9625L7.92379 23.8432C8.03722 24.0274 8.20722 24.1408 8.4056 24.1691C8.67468 24.2115 8.97232 24.0983 9.1281 23.8291L15.7959 12.8492C16.5891 11.5459 17 10.03 17 8.5C17 3.81083 13.1893 0 8.5 0ZM8.5 12.75C6.12009 12.75 4.25 10.8233 4.25 8.5C4.25 6.16245 6.16245 4.25 8.5 4.25C10.8375 4.25 12.75 6.16245 12.75 8.5C12.75 10.8092 10.9083 12.75 8.5 12.75Z" fill="#FD003A"/>
<path d="M9 0V4.21879C11.2 4.21879 13 6.1172 13 8.43758C13 10.7298 11.2666 12.6564 9 12.6564V23.9998C9.22751 24.0054 9.46147 23.8904 9.59111 23.6541L15.8667 12.7548C16.6133 11.4611 17 9.95639 17 8.43758C17 3.78285 13.4134 0 9 0Z" fill="#E50027"/>
</svg>
