<svg width="18" height="18" viewBox="0 0 18 18" fill="none" xmlns="http://www.w3.org/2000/svg">
<path d="M14.1431 7.71512C14.1431 10.9249 10.5824 14.2678 9.38664 15.3002C9.27524 15.384 9.13965 15.4292 9.00028 15.4292C8.86091 15.4292 8.72531 15.384 8.61392 15.3002C7.41821 14.2678 3.85742 10.9249 3.85742 7.71512C3.85742 6.35115 4.39926 5.04305 5.36373 4.07857C6.3282 3.1141 7.63631 2.57227 9.00028 2.57227C10.3642 2.57227 11.6724 3.1141 12.6368 4.07857C13.6013 5.04305 14.1431 6.35115 14.1431 7.71512Z" stroke="#3C3C3C" stroke-linecap="round" stroke-linejoin="round"/>
<path d="M9.00028 9.64369C10.0654 9.64369 10.9289 8.78024 10.9289 7.71512C10.9289 6.65 10.0654 5.78655 9.00028 5.78655C7.93516 5.78655 7.07171 6.65 7.07171 7.71512C7.07171 8.78024 7.93516 9.64369 9.00028 9.64369Z" stroke="#3C3C3C" stroke-linecap="round" stroke-linejoin="round"/>
</svg>
