<svg width="14" height="13" viewBox="0 0 14 13" fill="none" xmlns="http://www.w3.org/2000/svg">
<path d="M7.36146 1.00293C5.08821 1.00293 3.23828 2.86569 3.23828 5.15589C3.23828 8.40999 6.97388 11.7699 7.13285 11.911C7.19569 11.9673 7.27704 11.9984 7.36137 11.9985C7.44571 11.9986 7.52712 11.9676 7.59007 11.9115C7.74904 11.7699 11.4846 8.40999 11.4846 5.15589C11.4846 2.86569 9.6347 1.00293 7.36146 1.00293ZM7.36146 7.41676C6.09839 7.41676 5.0708 6.38917 5.0708 5.12611C5.0708 3.86304 6.09839 2.83545 7.36146 2.83545C8.62453 2.83545 9.65211 3.86304 9.65211 5.12611C9.65211 6.38917 8.62453 7.41676 7.36146 7.41676Z" fill="#303030"/>
</svg>
