<svg width="22" height="22" viewBox="0 0 22 22" fill="none" xmlns="http://www.w3.org/2000/svg">
<path d="M5.7207 8.97946V7.21945C5.7207 4.30665 6.6007 1.93945 11.0007 1.93945C15.4007 1.93945 16.2807 4.30665 16.2807 7.21945V8.97946" stroke="#3C3C3C" stroke-width="0.88"/>
<path d="M11.0008 16.4605C12.2158 16.4605 13.2008 15.4756 13.2008 14.2605C13.2008 13.0455 12.2158 12.0605 11.0008 12.0605C9.78577 12.0605 8.80078 13.0455 8.80078 14.2605C8.80078 15.4756 9.78577 16.4605 11.0008 16.4605Z" stroke="#3C3C3C" stroke-width="0.88"/>
<path d="M15.3992 19.5405H6.59922C3.07922 19.5405 2.19922 18.6605 2.19922 15.1405V13.3805C2.19922 9.86047 3.07922 8.98047 6.59922 8.98047H15.3992C18.9192 8.98047 19.7992 9.86047 19.7992 13.3805V15.1405C19.7992 18.6605 18.9192 19.5405 15.3992 19.5405Z" stroke="#3C3C3C" stroke-width="0.88"/>
</svg>
