<svg width="107" height="121" viewBox="0 0 107 121" fill="none" xmlns="http://www.w3.org/2000/svg">
<path d="M61.1639 95.9729C61.1639 100.06 62.3318 104.148 64.6672 107.651H2.62793V94.6589C2.62793 73.2007 19.999 55.8297 41.4572 55.8297H43.9387C57.6604 55.8297 70.5061 63.1284 77.5129 74.9525C67.8788 77.434 61.1639 86.1926 61.1639 95.9729Z" fill="#ACB4FF"/>
<path d="M42.7706 55.9758C57.2821 55.9758 69.046 44.2119 69.046 29.7004C69.046 15.1888 57.2821 3.42493 42.7706 3.42493C28.259 3.42493 16.4951 15.1888 16.4951 29.7004C16.4951 44.2119 28.259 55.9758 42.7706 55.9758Z" fill="#FFEFE7"/>
<path d="M104.518 95.9729C104.518 107.943 94.8838 117.577 82.9139 117.577C70.944 117.577 61.3096 107.943 61.3096 95.9729C61.3096 86.0464 68.0244 77.434 77.6589 74.9525C79.4107 74.5147 81.1621 74.2227 83.0601 74.2227C94.738 74.3685 104.518 84.003 104.518 95.9729Z" fill="white"/>
<path d="M15.7654 39.9185C15.6196 39.4807 15.4734 39.1887 15.3276 38.7506C14.8898 37.4369 15.6196 35.9771 16.9332 35.539C18.2469 35.1012 19.7067 35.831 20.1448 37.1446C20.2907 37.4366 20.4368 37.7286 20.4368 38.1664C20.8746 39.48 20.291 40.9399 18.977 41.5238C17.6633 42.108 16.2035 41.2321 15.7654 39.9185ZM107 95.9729C107 109.403 96.198 120.205 82.7683 120.205C75.0317 120.205 67.733 116.555 63.2077 110.278H48.3182C46.8584 110.278 45.6905 109.11 45.6905 107.65C45.6905 106.191 46.8584 105.023 48.3182 105.023H60.4342C59.1205 101.957 58.6824 98.7458 58.6824 95.8264C58.6824 86.922 63.6455 77.8715 73.5719 73.4924C66.7109 64.1498 55.7631 58.457 43.9391 58.457H41.4575C21.4588 58.457 5.25565 74.6602 5.10983 94.8047V105.315H36.64C38.0998 105.315 39.2677 106.483 39.2677 107.942C39.2677 109.402 38.0998 110.57 36.64 110.57H2.62767C1.16785 110.57 0.146138 109.402 0 107.942V94.9505C0 76.7036 11.824 60.7924 29.1951 55.3913C25.9835 53.7856 23.21 51.596 20.8746 48.8222C19.9987 47.8005 19.9987 46.1946 21.1666 45.1729C22.1883 44.297 23.7942 44.297 24.8159 45.4648C29.3412 50.574 35.7641 53.4933 42.6248 53.4933C55.7625 53.4933 66.2728 42.8371 66.1267 29.6994C65.9806 16.5617 55.4705 6.05134 42.3328 6.19748C29.3409 6.19748 18.8308 16.8537 18.8308 29.8456C18.8308 31.3054 17.663 32.4732 16.2032 32.4732C14.7434 32.4732 13.5755 31.3054 13.5755 29.8456C13.5755 13.9343 26.4213 0.942451 42.3325 0.796626C58.2437 0.650801 71.2356 13.6424 71.3814 29.5536C71.3814 40.3556 65.3963 50.2821 55.7622 55.2451C65.1047 58.1647 73.1332 64.1495 78.3882 72.3242C93.4242 69.5513 107 81.0834 107 95.9729ZM101.891 95.9729C101.891 85.4628 93.2784 76.8501 82.768 76.8501C72.2576 76.8501 63.6452 85.4625 63.6452 95.9729C63.6452 106.483 72.2576 115.096 82.768 115.096C93.4242 115.096 101.891 106.629 101.891 95.9729ZM92.6944 93.4914H85.3957V86.3387C85.3957 84.8789 84.2278 83.7111 82.768 83.7111C81.3082 83.7111 80.1403 84.8789 80.1403 86.3387V93.4914H72.8416C71.3817 93.4914 70.2139 94.6592 70.2139 96.119C70.2139 97.5788 71.3817 98.7467 72.8416 98.7467H80.1403V106.045C80.1403 107.505 81.3082 108.673 82.768 108.673C84.2278 108.673 85.3957 107.505 85.3957 106.045V98.7464H92.6944C94.1543 98.7464 95.3221 97.5785 95.3221 96.1187C95.3221 94.6589 94.0081 93.4914 92.6944 93.4914Z" fill="black"/>
</svg>
