<svg width="181" height="33" viewBox="0 0 181 33" fill="none" xmlns="http://www.w3.org/2000/svg">
<path d="M3.49779 31.8821C2.19129 31.3306 1.329 30.5691 0.910913 29.5974C0.492831 28.5995 0.349116 27.536 0.479766 26.4068C0.610417 25.2513 0.923978 24.0958 1.42045 22.9404C1.94305 21.7849 2.47872 20.7607 3.02745 19.8679C3.21036 19.5527 3.55005 19.0144 4.04653 18.2528C4.543 17.4913 5.0656 16.6903 5.61433 15.85C6.1892 14.9834 6.72486 14.1824 7.22134 13.4471C7.74394 12.6856 8.10976 12.1604 8.3188 11.8715C8.63236 9.84943 9.25948 8.24753 10.2002 7.0658C11.1409 5.85781 12.1991 5.0306 13.375 4.58417C14.577 4.13774 15.8051 4.04583 17.0593 4.30844C18.3136 4.54478 19.411 5.10939 20.3517 6.00225C21.2924 6.86885 21.9718 8.03745 22.3899 9.50804C22.8079 10.9786 22.7688 12.6987 22.2723 14.6683C21.8019 16.6378 20.7829 18.8437 19.2151 21.2859C17.6473 23.7282 15.3478 26.3674 12.3167 29.2035C11.7941 29.7025 11.167 30.1883 10.4353 30.661C9.72983 31.1074 8.97205 31.4751 8.16202 31.7639C7.37812 32.0528 6.58115 32.2235 5.77111 32.276C4.96108 32.3285 4.20331 32.1972 3.49779 31.8821ZM2.12596 28.7702C2.38726 29.952 2.88374 30.6873 3.61538 30.9761C4.34702 31.265 5.20932 31.2125 6.20226 30.8186C7.19521 30.4246 8.27961 29.755 9.45546 28.8096C10.6313 27.8642 11.8072 26.7613 12.983 25.5008C14.1589 24.214 15.2825 22.8222 16.3538 21.3253C17.4251 19.8285 18.3528 18.3448 19.1367 16.8742C19.9467 15.4036 20.5608 13.9986 20.9788 12.6593C21.3969 11.32 21.5276 10.1646 21.3708 9.19292C21.2401 8.19501 20.7698 7.44658 19.9598 6.94763C19.1759 6.44868 17.9608 6.30425 16.3146 6.51433C15.7136 7.03954 14.9167 7.81423 13.9237 8.8384C12.9308 9.8363 11.8725 10.9786 10.7489 12.2654C9.62531 13.5522 8.50171 14.944 7.37812 16.4409C6.25452 17.9115 5.26158 19.382 4.39928 20.8526C3.53699 22.3232 2.88374 23.7413 2.43952 25.1069C1.99531 26.4724 1.89079 27.6935 2.12596 28.7702Z" fill="#303030"/>
<path d="M37.0368 31.8821C36.3313 31.5932 35.7695 31.2125 35.3514 30.7398C34.9333 30.2671 34.6067 29.7287 34.3715 29.1247C34.1364 28.5208 33.9535 27.8905 33.8228 27.234C33.6922 26.5512 33.5746 25.8684 33.4701 25.1856C33.2349 25.0281 32.8168 25.1856 32.2158 25.6583C31.6148 26.1048 30.9224 26.6694 30.1385 27.3522C29.3546 28.0349 28.5053 28.744 27.5908 29.4793C26.7024 30.1883 25.8401 30.7135 25.0039 31.0549C24.1677 31.3963 23.3969 31.4619 22.6914 31.2519C22.012 31.0418 21.4763 30.359 21.0844 29.2035C20.9537 28.8096 20.9929 28.245 21.202 27.5097C21.4371 26.7482 21.7768 25.9209 22.221 25.0281C22.6653 24.1352 23.1748 23.2161 23.7497 22.2707C24.3507 21.2991 24.9255 20.4062 25.4742 19.5921C26.0491 18.7518 26.5717 18.0428 27.0421 17.465C27.5385 16.861 27.9174 16.4671 28.1787 16.2833C28.7797 16.5722 29.041 17.0186 28.9626 17.6226C28.9104 18.2003 28.6752 18.87 28.2571 19.6315C27.8652 20.3931 27.3425 21.2072 26.6893 22.0738C26.0622 22.9404 25.4612 23.807 24.8863 24.6736C24.3376 25.5139 23.8934 26.328 23.5537 27.1158C23.214 27.9036 23.1225 28.5995 23.2793 29.2035C23.8542 29.4399 24.5597 29.3217 25.3959 28.849C26.2582 28.3501 27.1727 27.6673 28.1395 26.8007C29.1325 25.9341 30.1385 24.9493 31.1575 23.8464C32.2027 22.7171 33.1696 21.6405 34.058 20.6163C34.9464 19.5659 35.7303 18.6467 36.4097 17.8589C37.0891 17.0711 37.5856 16.5459 37.8991 16.2833C38.4478 16.5459 38.7222 16.9792 38.7222 17.5832C38.7222 18.1609 38.5654 18.8306 38.2519 19.5921C37.9644 20.3537 37.5986 21.1809 37.1544 22.0738C36.7363 22.9404 36.3705 23.807 36.0569 24.6736C35.7434 25.5402 35.5605 26.3674 35.5082 27.1552C35.4559 27.943 35.665 28.6258 36.1353 29.2035L37.468 30.7792H41.4267C41.6096 30.7792 41.6488 30.858 41.5443 31.0155C41.4397 31.1731 41.283 31.3438 41.0739 31.5276C40.891 31.7114 40.695 31.8952 40.486 32.0791C40.277 32.2366 40.1594 32.3154 40.1332 32.3154C39.4539 32.4467 38.9051 32.4599 38.487 32.3548C38.069 32.276 37.5856 32.1185 37.0368 31.8821Z" fill="#303030"/>
<path d="M43.7272 31.8821C43.6749 31.8559 43.6749 31.5539 43.7272 30.9761C43.8055 30.3721 43.9101 29.6237 44.0407 28.7308C44.1714 27.838 44.3412 26.8532 44.5503 25.7765C44.7593 24.6998 44.9814 23.6757 45.2166 22.704C45.4517 21.7061 45.7 20.8395 45.9613 20.1042C46.2487 19.3427 46.5231 18.8174 46.7844 18.5286C46.9673 18.3448 47.1502 18.3448 47.3331 18.5286C47.516 18.6861 47.6989 18.8962 47.8818 19.1588C48.0648 19.3952 48.2477 19.6184 48.4306 19.8285C48.6135 20.0123 48.8095 20.0254 49.0185 19.8679C49.7501 18.8437 50.5471 17.8721 51.4094 16.9529C52.2978 16.0076 53.2777 15.1935 54.349 14.5107C54.4536 14.4319 54.741 14.3137 55.2113 14.1562C55.6817 13.9724 56.2174 13.8017 56.8183 13.6441C57.4193 13.4603 58.0334 13.3158 58.6605 13.2108C59.3138 13.0795 59.8625 13.027 60.3067 13.0532C60.7771 13.0532 61.0906 13.1714 61.2474 13.4078C61.4303 13.6178 61.3519 13.9855 61.0122 14.5107C59.4444 14.537 57.9811 14.9965 56.6224 15.8894C55.2636 16.7822 54.0094 17.8852 52.8596 19.1982C51.7099 20.5113 50.6647 21.9425 49.724 23.4918C48.7833 25.015 47.9602 26.433 47.2547 27.7461C46.5753 29.0591 46.0005 30.1489 45.5301 31.0155C45.0859 31.8821 44.7593 32.3154 44.5503 32.3154C44.5241 32.3154 44.4065 32.2629 44.1975 32.1579C43.9885 32.0265 43.8317 31.9346 43.7272 31.8821Z" fill="#303030"/>
<path d="M62.176 31.8821C61.967 31.2781 62.0846 30.3459 62.5288 29.0854C62.973 27.7986 63.574 26.3542 64.3318 24.7523C65.1157 23.1242 65.978 21.4435 66.9187 19.7103C67.8855 17.9771 68.7608 16.3621 69.5447 14.8652C70.3548 13.3421 71.008 12.0553 71.5045 11.0049C72.0271 9.92822 72.2361 9.24544 72.1316 8.95657C71.8181 8.85153 71.4784 8.89092 71.1125 9.07474C70.7729 9.25857 70.4201 9.44239 70.0543 9.62622C69.7146 9.81004 69.3749 9.91508 69.0352 9.94135C68.6955 9.96761 68.395 9.78378 68.1337 9.38987C68.0031 9.20605 67.9508 9.03535 67.9769 8.87779C68.0292 8.69396 68.1076 8.52327 68.2121 8.36571C68.3428 8.20814 68.4734 8.07684 68.604 7.9718C68.7608 7.84049 68.8915 7.73545 68.996 7.65667C71.9748 5.68712 74.7969 4.15087 77.4622 3.04793C80.1536 1.94498 82.5575 1.19655 84.6741 0.80264C86.8167 0.40873 88.6067 0.329948 90.0438 0.566294C91.5071 0.80264 92.5131 1.28846 93.0618 2.02376C93.6106 2.7328 93.6367 3.66505 93.1402 4.82052C92.6699 5.94973 91.5594 7.22337 89.8086 8.64144C88.084 10.0595 85.6409 11.5826 82.4791 13.2108C79.3435 14.8127 75.3979 16.454 70.6422 18.1347C70.3809 18.5548 70.4462 19.0275 70.8382 19.5527C71.2563 20.078 71.8572 20.6557 72.6412 21.2859C73.4512 21.8899 74.3919 22.5202 75.4632 23.1767C76.5607 23.8332 77.6581 24.5029 78.7556 25.1856C79.8792 25.8422 80.9375 26.4987 81.9304 27.1552C82.9495 27.7855 83.7856 28.3894 84.4389 28.9672C85.0921 29.5449 85.5102 30.0833 85.6931 30.5822C85.9022 31.0812 85.7323 31.5145 85.1836 31.8821C85.1575 31.9084 84.9876 31.8165 84.6741 31.6064C84.3866 31.37 84.0208 31.0812 83.5766 30.7398C83.1324 30.3721 82.649 29.9782 82.1264 29.558C81.6299 29.1379 81.1465 28.744 80.6762 28.3763C80.2319 28.0087 79.84 27.6935 79.5003 27.4309C79.1867 27.1683 79.0038 27.0108 78.9516 26.9582C77.3838 25.9603 75.816 24.9756 74.2482 24.0039C72.6803 23.0323 71.1517 21.9425 69.6623 20.7345C69.1658 20.5769 68.6694 20.8395 68.1729 21.5223C67.6764 22.2051 67.193 23.0848 66.7227 24.1615C66.2523 25.2119 65.782 26.3411 65.3117 27.5491C64.8674 28.7308 64.4494 29.7681 64.0574 30.661C63.6655 31.5276 63.3127 32.1185 62.9991 32.4336C62.6856 32.775 62.4112 32.5912 62.176 31.8821ZM71.5045 15.4561C72.0794 15.6399 72.8502 15.6268 73.817 15.4167C74.81 15.2066 75.8943 14.8521 77.0702 14.3531C78.2722 13.8542 79.5134 13.2502 80.7937 12.5411C82.1003 11.8321 83.3414 11.0968 84.5173 10.3353C85.6931 9.54743 86.7645 8.75962 87.7313 7.9718C88.7242 7.18398 89.4951 6.46181 90.0438 5.80529C90.5925 5.12252 90.88 4.54478 90.9061 4.07209C90.9584 3.5994 90.6448 3.2974 89.9654 3.1661C87.1434 3.11358 84.7394 3.25801 82.7535 3.5994C80.7676 3.91453 79.0692 4.51852 77.6581 5.41138C76.2471 6.30425 75.0582 7.52537 74.0914 9.07474C73.1246 10.6241 72.2623 12.5937 71.5045 14.9834V15.4561Z" fill="#303030"/>
<path d="M91.5604 31.8821C90.7765 31.6195 90.1755 31.2256 89.7574 30.7004C89.3654 30.1489 89.1041 29.5449 88.9735 28.8884C88.8428 28.2319 88.8167 27.5491 88.8951 26.8401C88.9996 26.1048 89.1564 25.4089 89.3654 24.7523C90.1494 23.912 91.0247 22.9535 91.9915 21.8768C92.9845 20.7739 94.0297 19.6972 95.1271 18.6467C96.2246 17.5963 97.3613 16.6247 98.5371 15.7318C99.7391 14.8127 100.954 14.1168 102.182 13.6441C102.6 13.4603 102.927 13.4734 103.162 13.6835C103.423 13.8673 103.606 14.1693 103.711 14.5895C103.815 15.0096 103.855 15.4955 103.828 16.0469C103.828 16.5984 103.789 17.1368 103.711 17.662C103.632 18.1872 103.528 18.6599 103.397 19.08C103.267 19.5002 103.136 19.7891 103.005 19.9467C102.692 20.3143 102.078 20.7476 101.163 21.2466C100.275 21.7455 99.2818 22.297 98.1844 22.901C97.0869 23.4787 95.9894 24.0827 94.892 24.713C93.7945 25.3432 92.893 25.9735 92.1875 26.6037C91.482 27.2077 91.0639 27.8117 90.9333 28.4157C90.8026 29.0197 91.1684 29.5712 92.0307 30.0701C92.9191 30.1752 93.9905 30.1358 95.2447 29.952C96.5251 29.7419 97.8185 29.4793 99.125 29.1641C100.458 28.8228 101.738 28.4814 102.966 28.14C104.194 27.7723 105.2 27.4835 105.984 27.2734L106.455 27.7067C105.88 28.4682 104.939 29.1641 103.632 29.7944C102.326 30.4246 100.915 30.9499 99.3994 31.37C97.8839 31.7639 96.4075 32.0265 94.9704 32.1579C93.5332 32.2629 92.3965 32.171 91.5604 31.8821ZM100.928 16.8348C100.902 16.8085 100.706 16.9267 100.34 17.1893C99.9743 17.4256 99.517 17.7539 98.9683 18.1741C98.4457 18.568 97.8708 19.0144 97.2437 19.5133C96.6427 19.986 96.0809 20.4325 95.5583 20.8526C95.0618 21.2728 94.6437 21.6405 94.304 21.9556C93.9643 22.2445 93.8206 22.3889 93.8729 22.3889C94.291 22.4677 94.8266 22.4152 95.4799 22.2313C96.1593 22.0212 96.8517 21.7324 97.5572 21.3647C98.2889 20.9971 98.9813 20.59 99.6346 20.1436C100.288 19.6709 100.797 19.2114 101.163 18.7649C101.555 18.3185 101.751 17.9246 101.751 17.5832C101.777 17.2418 101.503 16.9923 100.928 16.8348Z" fill="#303030"/>
<path d="M107.344 31.4094C106.795 31.0943 106.403 30.5953 106.168 29.9126C105.933 29.2298 105.802 28.4551 105.776 27.5885C105.75 26.7219 105.802 25.8159 105.933 24.8705C106.064 23.9251 106.22 23.006 106.403 22.1132C106.586 21.2203 106.769 20.4193 106.952 19.7103C107.135 19.0013 107.266 18.4498 107.344 18.0559C107.475 17.9771 107.605 17.9771 107.736 18.0559C107.893 18.1347 108.036 18.2528 108.167 18.4104C108.324 18.5417 108.441 18.673 108.52 18.8043C108.624 18.9094 108.677 18.9619 108.677 18.9619C108.755 19.881 108.755 20.787 108.677 21.6799C108.624 22.5465 108.546 23.4131 108.441 24.2797C108.363 25.1463 108.285 26.026 108.206 26.9189C108.154 27.8117 108.154 28.7177 108.206 29.6368C108.415 30.0307 108.846 30.0439 109.5 29.6762C110.153 29.2823 110.95 28.6652 111.891 27.8248C112.831 26.9582 113.85 25.9472 114.948 24.7917C116.071 23.61 117.169 22.4414 118.24 21.2859C119.338 20.1305 120.37 19.0538 121.337 18.0559C122.303 17.0317 123.114 16.257 123.767 15.7318C124.446 15.1803 124.917 14.9571 125.178 15.0622C125.439 15.141 125.4 15.6924 125.06 16.7166C124.433 17.2681 123.688 18.0953 122.826 19.1982C121.964 20.3012 121.023 21.496 120.004 22.7828C118.985 24.0433 117.927 25.3038 116.829 26.5643C115.732 27.8248 114.621 28.9147 113.498 29.8338C112.4 30.7266 111.329 31.3569 110.284 31.7246C109.238 32.0659 108.259 31.9609 107.344 31.4094Z" fill="#303030"/>
<path d="M126.185 31.8821C127.256 28.4157 128.223 25.6715 129.085 23.6494C129.974 21.6011 130.705 20.1699 131.28 19.3558C131.881 18.5417 132.286 18.2791 132.495 18.568C132.704 18.8568 132.678 19.5921 132.417 20.7739C132.182 21.9556 131.659 23.5444 130.849 25.5402C130.065 27.5097 128.955 29.7681 127.517 32.3154C127.308 32.3942 127.06 32.4073 126.773 32.3548C126.485 32.3023 126.289 32.1447 126.185 31.8821ZM133.044 12.9351C132.992 12.8038 132.966 12.5674 132.966 12.226C132.966 11.8846 132.992 11.6745 133.044 11.5958C133.645 11.3857 134.102 11.3594 134.416 11.517C134.729 11.6745 134.925 11.9109 135.004 12.226C135.082 12.5149 135.069 12.83 134.965 13.1714C134.886 13.5128 134.742 13.7754 134.533 13.9592C134.324 14.1168 134.076 14.143 133.789 14.038C133.527 13.9067 133.279 13.5391 133.044 12.9351Z" fill="#303030"/>
<path d="M138.872 31.8821C138.088 31.6195 137.487 31.2256 137.069 30.7004C136.677 30.1489 136.416 29.5449 136.285 28.8884C136.155 28.2319 136.128 27.5491 136.207 26.8401C136.311 26.1048 136.468 25.4089 136.677 24.7523C137.461 23.912 138.336 22.9535 139.303 21.8768C140.296 20.7739 141.341 19.6972 142.439 18.6467C143.536 17.5963 144.673 16.6247 145.849 15.7318C147.051 14.8127 148.266 14.1168 149.494 13.6441C149.912 13.4603 150.239 13.4734 150.474 13.6835C150.735 13.8673 150.918 14.1693 151.023 14.5895C151.127 15.0096 151.166 15.4955 151.14 16.0469C151.14 16.5984 151.101 17.1368 151.023 17.662C150.944 18.1872 150.84 18.6599 150.709 19.08C150.578 19.5002 150.448 19.7891 150.317 19.9467C150.003 20.3143 149.389 20.7476 148.475 21.2466C147.586 21.7455 146.593 22.297 145.496 22.901C144.399 23.4787 143.301 24.0827 142.204 24.713C141.106 25.3432 140.205 25.9735 139.499 26.6037C138.794 27.2077 138.376 27.8117 138.245 28.4157C138.114 29.0197 138.48 29.5712 139.342 30.0701C140.231 30.1752 141.302 30.1358 142.556 29.952C143.837 29.7419 145.13 29.4793 146.437 29.1641C147.769 28.8228 149.05 28.4814 150.278 28.14C151.506 27.7723 152.512 27.4835 153.296 27.2734L153.766 27.7067C153.191 28.4682 152.251 29.1641 150.944 29.7944C149.638 30.4246 148.227 30.9499 146.711 31.37C145.196 31.7639 143.719 32.0265 142.282 32.1579C140.845 32.2629 139.708 32.171 138.872 31.8821ZM148.24 16.8348C148.214 16.8085 148.018 16.9267 147.652 17.1893C147.286 17.4256 146.829 17.7539 146.28 18.1741C145.757 18.568 145.182 19.0144 144.555 19.5133C143.954 19.986 143.393 20.4325 142.87 20.8526C142.373 21.2728 141.955 21.6405 141.616 21.9556C141.276 22.2445 141.132 22.3889 141.185 22.3889C141.603 22.4677 142.138 22.4152 142.792 22.2313C143.471 22.0212 144.163 21.7324 144.869 21.3647C145.601 20.9971 146.293 20.59 146.946 20.1436C147.599 19.6709 148.109 19.2114 148.475 18.7649C148.867 18.3185 149.063 17.9246 149.063 17.5832C149.089 17.2418 148.815 16.9923 148.24 16.8348Z" fill="#303030"/>
<path d="M165.513 31.8821C164.99 31.4882 164.585 30.9761 164.298 30.3459C164.01 29.7156 163.788 29.046 163.631 28.3369C163.501 27.6279 163.409 26.9189 163.357 26.2098C163.305 25.5008 163.279 24.8705 163.279 24.319C163.226 24.2665 163.148 24.2403 163.043 24.2403C162.965 24.2403 162.9 24.2665 162.847 24.319C162.194 24.7917 161.567 25.3563 160.966 26.0129C160.365 26.6694 159.764 27.339 159.163 28.0218C158.588 28.7046 158.013 29.3874 157.439 30.0701C156.89 30.7266 156.328 31.3306 155.753 31.8821C155.387 32.0134 155.008 32.0528 154.616 32.0003C154.225 31.9215 153.885 31.7902 153.597 31.6064C153.336 31.3963 153.14 31.1337 153.009 30.8186C152.905 30.4772 152.944 30.0833 153.127 29.6368C153.624 28.0349 154.159 26.3411 154.734 24.5554C155.335 22.7434 155.962 21.0233 156.615 19.3952C156.851 18.8174 157.099 18.5023 157.36 18.4498C157.648 18.3973 157.896 18.5023 158.105 18.7649C158.314 19.0275 158.458 19.3952 158.536 19.8679C158.614 20.3143 158.575 20.7607 158.418 21.2072C158.34 21.4172 158.196 21.798 157.987 22.3495C157.778 22.8747 157.556 23.4524 157.321 24.0827C157.086 24.6867 156.864 25.2644 156.655 25.8159C156.446 26.3674 156.302 26.7482 156.223 26.9582V28.2975C157.033 27.5622 157.713 26.9057 158.262 26.328C158.81 25.7503 159.32 25.1725 159.79 24.5948C160.287 23.9908 160.796 23.3605 161.319 22.704C161.841 22.0212 162.495 21.2203 163.279 20.3012C163.88 19.5921 164.35 19.2114 164.69 19.1588C165.029 19.08 165.278 19.2245 165.434 19.5921C165.617 19.9335 165.722 20.4456 165.748 21.1284C165.774 21.7849 165.774 22.5071 165.748 23.2949C165.748 24.0564 165.722 24.8311 165.669 25.6189C165.617 26.3805 165.591 27.0502 165.591 27.6279C165.617 28.1794 165.683 28.5864 165.787 28.849C165.892 29.0854 166.088 29.0591 166.375 28.7702C166.689 28.2713 167.146 27.5491 167.747 26.6037C168.348 25.6583 169.027 24.621 169.785 23.4918C170.543 22.3364 171.366 21.1809 172.254 20.0254C173.169 18.8437 174.096 17.7933 175.037 16.8742C175.978 15.9288 176.919 15.1935 177.859 14.6683C178.8 14.1168 179.701 13.9067 180.564 14.038C180.59 14.143 180.433 14.4319 180.093 14.9046C179.78 15.3773 179.349 15.9419 178.8 16.5984C178.277 17.2287 177.689 17.9246 177.036 18.6861C176.409 19.4214 175.782 20.1305 175.155 20.8133C174.554 21.496 174.018 22.1132 173.548 22.6646C173.077 23.2161 172.751 23.6231 172.568 23.8857C172.489 23.9908 172.32 24.2271 172.058 24.5948C171.823 24.9362 171.536 25.3563 171.196 25.8553C170.882 26.328 170.53 26.8401 170.138 27.3915C169.772 27.943 169.419 28.4682 169.079 28.9672C168.74 29.4661 168.439 29.8994 168.178 30.2671C167.943 30.6347 167.786 30.8711 167.708 30.9761C167.472 31.3175 167.276 31.5932 167.12 31.8033C166.963 32.0134 166.806 32.1579 166.649 32.2366C166.519 32.3154 166.362 32.3285 166.179 32.276C165.996 32.2235 165.774 32.0922 165.513 31.8821Z" fill="#303030"/>
</svg>
