<svg width="40" height="40" viewBox="0 0 40 40" fill="none" xmlns="http://www.w3.org/2000/svg">
<path d="M25.7957 10.8467H15.5117V29.3228H25.7957V10.8467Z" fill="#FF5A00"/>
<path d="M16.1954 20.085C16.1954 16.3312 17.9601 12.9996 20.668 10.8469C18.6751 9.28001 16.1611 8.33301 13.419 8.33301C6.92307 8.33301 1.66699 13.5891 1.66699 20.085C1.66699 26.5809 6.92307 31.837 13.419 31.837C16.1611 31.837 18.6751 30.89 20.668 29.3231C17.9563 27.2009 16.1954 23.8388 16.1954 20.085Z" fill="#EB001B"/>
<path d="M39.6689 20.085C39.6689 26.5809 34.4129 31.837 27.9169 31.837C25.1748 31.837 22.6609 30.89 20.668 29.3231C23.4101 27.1666 25.1406 23.8388 25.1406 20.085C25.1406 16.3312 23.3759 12.9996 20.668 10.8469C22.6571 9.28001 25.171 8.33301 27.9131 8.33301C34.4129 8.33301 39.6689 13.6233 39.6689 20.085Z" fill="#F79E1B"/>
</svg>
