<svg width="23" height="22" viewBox="0 0 23 22" fill="none" xmlns="http://www.w3.org/2000/svg">
<path fill-rule="evenodd" clip-rule="evenodd" d="M10.3801 0.282227H12.6193C14.1051 0.282222 15.27 0.282218 16.2063 0.356174C17.1597 0.431481 17.9473 0.587368 18.6602 0.938541C19.8321 1.51585 20.7849 2.43704 21.3821 3.57007C21.7453 4.25929 21.9065 5.02074 21.9844 5.94245C22.0609 6.84762 22.0609 7.97385 22.0609 9.41035V12.2973C22.0609 12.5659 22.0609 12.7294 22.054 12.872C21.9021 15.9738 19.3354 18.4552 16.127 18.6021C15.9796 18.6088 15.7934 18.6088 15.4846 18.6088H15.4538L15.3723 18.6089C14.4329 18.6147 13.5179 18.8982 12.75 19.4213L12.6968 19.458L9.86884 21.4109C8.23916 22.5363 6.09764 20.911 6.84144 19.1133C6.9414 18.8716 6.75734 18.6088 6.48817 18.6088H5.83635C3.13133 18.6088 0.938477 16.4888 0.938477 13.8736L0.938477 9.41037C0.938472 7.97386 0.938468 6.84763 1.01496 5.94245C1.09286 5.02074 1.2541 4.25929 1.61733 3.57007C2.21447 2.43704 3.1673 1.51585 4.33925 0.938541C5.05214 0.587368 5.83975 0.431481 6.79312 0.356174C7.72938 0.282218 8.8943 0.282222 10.3801 0.282227ZM6.92543 1.92181C6.07254 1.98918 5.52256 2.11864 5.0769 2.33818C4.21067 2.76489 3.50641 3.44576 3.06504 4.28322C2.83797 4.71408 2.70406 5.2458 2.63437 6.07037C2.56391 6.90411 2.56328 7.96629 2.56328 9.44551V13.8736C2.56328 15.6212 4.02868 17.038 5.83635 17.038H6.48817C7.90684 17.038 8.87691 18.4232 8.35003 19.6967C8.2089 20.0378 8.61523 20.3461 8.92444 20.1326L11.7524 18.1797L11.8141 18.1373C12.853 17.4295 14.091 17.0459 15.3619 17.0381L15.4538 17.038C15.8023 17.038 15.9465 17.0377 16.0502 17.033C18.4216 16.9244 20.3187 15.0903 20.431 12.7977C20.4359 12.6972 20.4361 12.5737 20.4361 12.2718V9.44551C20.4361 7.96629 20.4355 6.90411 20.365 6.07037C20.2953 5.2458 20.1614 4.71408 19.9344 4.28322C19.493 3.44576 18.7887 2.76488 17.9225 2.33818C17.4768 2.11864 16.9269 1.98918 16.074 1.92181C15.2116 1.85369 14.1129 1.85308 12.5829 1.85308H10.4165C8.88647 1.85308 7.7878 1.85369 6.92543 1.92181Z" fill="white"/>
<path d="M8.25009 9.44551C8.25009 10.0239 7.76513 10.4927 7.16689 10.4927C6.56866 10.4927 6.08369 10.0239 6.08369 9.44551C6.08369 8.86714 6.56866 8.39828 7.16689 8.39828C7.76513 8.39828 8.25009 8.86714 8.25009 9.44551Z" fill="white"/>
<path d="M12.5829 9.44551C12.5829 10.0239 12.0979 10.4927 11.4997 10.4927C10.9015 10.4927 10.4165 10.0239 10.4165 9.44551C10.4165 8.86714 10.9015 8.39828 11.4997 8.39828C12.0979 8.39828 12.5829 8.86714 12.5829 9.44551Z" fill="white"/>
<path d="M16.9157 9.44551C16.9157 10.0239 16.4307 10.4927 15.8325 10.4927C15.2343 10.4927 14.7493 10.0239 14.7493 9.44551C14.7493 8.86714 15.2343 8.39828 15.8325 8.39828C16.4307 8.39828 16.9157 8.86714 16.9157 9.44551Z" fill="white"/>
</svg>
