<svg width="23" height="23" viewBox="0 0 23 23" fill="none" xmlns="http://www.w3.org/2000/svg">
<path d="M9.66683 5.41146C9.66683 6.42398 10.4876 7.24479 11.5002 7.24479C12.5127 7.24479 13.3335 6.42398 13.3335 5.41146C13.3335 4.39894 12.5127 3.57812 11.5002 3.57812C10.4876 3.57812 9.66683 4.39894 9.66683 5.41146Z" fill="#0B0B0B"/>
<path d="M9.66683 11.828C9.66683 12.8405 10.4876 13.6613 11.5002 13.6613C12.5127 13.6613 13.3335 12.8405 13.3335 11.828C13.3335 10.8154 12.5127 9.99463 11.5002 9.99463C10.4876 9.99463 9.66683 10.8154 9.66683 11.828Z" fill="#0B0B0B"/>
<path d="M9.66683 18.245C9.66683 19.2575 10.4876 20.0783 11.5002 20.0783C12.5127 20.0783 13.3335 19.2575 13.3335 18.245C13.3335 17.2324 12.5127 16.4116 11.5002 16.4116C10.4876 16.4116 9.66683 17.2324 9.66683 18.245Z" fill="#0B0B0B"/>
</svg>
