<svg width="14" height="13" viewBox="0 0 14 13" fill="none" xmlns="http://www.w3.org/2000/svg">
<path d="M10.9788 8.65616C10.3143 8.0878 9.63987 7.74353 8.98351 8.31103L8.59158 8.65402C8.30482 8.903 7.77167 10.0663 5.71029 7.69502C3.64935 5.32672 4.87578 4.95797 5.16297 4.71114L5.55704 4.36772C6.20997 3.79893 5.96356 3.0829 5.49265 2.34584L5.20847 1.89939C4.73541 1.16405 4.22028 0.681112 3.56564 1.24904L3.21192 1.55812C2.92259 1.76889 2.11383 2.45401 1.91766 3.75557C1.68156 5.31727 2.42635 7.10563 4.13271 9.06784C5.83693 11.0309 7.50552 12.017 9.0861 11.9998C10.3997 11.9856 11.193 11.2807 11.4411 11.0245L11.7961 10.715C12.449 10.1475 12.0434 9.56966 11.3784 9.00001L10.9788 8.65616Z" fill="#303030"/>
</svg>
