<svg width="13" height="14" viewBox="0 0 13 14" fill="none" xmlns="http://www.w3.org/2000/svg">
<g clip-path="url(#clip0_18643_12102)">
<path d="M11.1373 9.48996C10.3811 8.84318 9.61367 8.45139 8.86674 9.0972L8.42073 9.48752C8.09441 9.77086 7.48768 11.0947 5.14186 8.39619C2.79653 5.70109 4.1922 5.28146 4.51901 5.00057L4.96746 4.60976C5.71048 3.96249 5.43008 3.14766 4.89419 2.30889L4.57079 1.80084C4.03246 0.964024 3.44625 0.414452 2.70127 1.06075L2.29874 1.41247C1.96948 1.65233 1.04913 2.43199 0.825886 3.91315C0.557206 5.69034 1.40477 7.72547 3.34659 9.95844C5.28597 12.1924 7.1848 13.3145 8.98349 13.2949C10.4783 13.2788 11.3811 12.4767 11.6634 12.1851L12.0674 11.8328C12.8105 11.187 12.3488 10.5295 11.5921 9.88126L11.1373 9.48996Z" fill="white"/>
</g>
<defs>
<clipPath id="clip0_18643_12102">
<rect width="13" height="14" fill="white"/>
</clipPath>
</defs>
</svg>
