<svg width="261" height="180" viewBox="0 0 261 180" fill="none" xmlns="http://www.w3.org/2000/svg">
<path d="M260.368 170.099H0.631836V170.229H260.368V170.099Z" fill="#EBEBEB"/>
<path d="M234.343 178.46H217.137V178.59H234.343V178.46Z" fill="#EBEBEB"/>
<path d="M172.692 179.87H168.176V180H172.692V179.87Z" fill="#EBEBEB"/>
<path d="M216.617 173.636H206.647V173.766H216.617V173.636Z" fill="#EBEBEB"/>
<path d="M50.3204 174.509H27.8828V174.639H50.3204V174.509Z" fill="#EBEBEB"/>
<path d="M58.2351 174.509H54.9453V174.639H58.2351V174.509Z" fill="#EBEBEB"/>
<path d="M117.59 176.703H68.9277V176.833H117.59V176.703Z" fill="#EBEBEB"/>
<path d="M123.754 146.931H23.4446C22.6585 146.93 21.9049 146.618 21.349 146.062C20.7932 145.506 20.4805 144.752 20.4795 143.966V2.96463C20.4805 2.17857 20.7932 1.42498 21.3491 0.869201C21.9049 0.313419 22.6586 0.00082482 23.4446 0H123.755C124.541 0.000962278 125.294 0.313616 125.85 0.869384C126.406 1.42515 126.719 2.17866 126.72 2.96463V143.966C126.719 144.752 126.406 145.506 125.85 146.062C125.294 146.618 124.54 146.93 123.754 146.931ZM23.4446 0.128311C22.693 0.128998 21.9723 0.427864 21.4407 0.959322C20.9092 1.49078 20.6102 2.21141 20.6094 2.96307V143.966C20.6102 144.718 20.9092 145.439 21.4407 145.97C21.9722 146.502 22.6929 146.801 23.4446 146.801H123.755C124.507 146.801 125.227 146.502 125.759 145.97C126.29 145.439 126.589 144.718 126.59 143.966V2.96463C126.589 2.21306 126.29 1.49251 125.758 0.961064C125.227 0.429621 124.506 0.130693 123.755 0.129868L23.4446 0.128311Z" fill="#EBEBEB"/>
<path d="M236.115 146.931H135.804C135.018 146.93 134.265 146.618 133.709 146.062C133.153 145.506 132.841 144.752 132.84 143.966V2.96463C132.841 2.17862 133.153 1.42503 133.709 0.869233C134.265 0.313435 135.018 0.00082507 135.804 0H236.115C236.901 0.00068733 237.655 0.313219 238.211 0.869017C238.767 1.42481 239.079 2.17848 239.08 2.96463V143.966C239.079 144.752 238.767 145.506 238.211 146.062C237.655 146.618 236.901 146.931 236.115 146.931ZM135.806 0.128311C135.054 0.129136 134.333 0.428062 133.802 0.959504C133.27 1.49095 132.972 2.2115 132.971 2.96307V143.966C132.971 144.718 133.27 145.439 133.802 145.97C134.333 146.502 135.054 146.801 135.806 146.801H236.116C236.868 146.801 237.588 146.502 238.12 145.97C238.652 145.439 238.951 144.718 238.952 143.966V2.96463C238.951 2.21247 238.652 1.49128 238.12 0.959475C237.588 0.427665 236.867 0.128723 236.115 0.128311H135.806Z" fill="#EBEBEB"/>
<path d="M132.167 53.434C131.358 49.5543 129.823 45.8624 127.643 42.5526L131.539 37.8467L123.21 29.5165L118.503 33.4125C115.193 31.2335 111.501 29.6989 107.622 28.8895L107.05 22.8231H95.2703L94.6989 28.8895C90.8196 29.6988 87.1279 31.2334 83.818 33.4125L79.1116 29.5165L70.7813 37.8467L74.6773 42.5532C72.4979 45.863 70.9631 49.5546 70.1538 53.434L64.0879 54.0055V65.785L70.1538 66.3565C70.9633 70.2358 72.498 73.9274 74.6773 77.2373L70.7813 81.9438L79.1116 90.274L83.818 86.378C87.1275 88.5581 90.8193 90.0931 94.6989 90.9021L95.2703 96.9685H107.05L107.622 90.9026C111.502 90.0935 115.194 88.5584 118.503 86.378L123.21 90.274L131.539 81.9453L127.643 77.2394C129.822 73.9295 131.357 70.2377 132.166 66.358L138.232 65.7866V54.006L132.167 53.434ZM117.108 59.8958C117.108 63.0499 116.173 66.1333 114.42 68.7559C112.668 71.3785 110.177 73.4226 107.263 74.6296C104.349 75.8367 101.142 76.1525 98.0488 75.5372C94.9552 74.9218 92.1136 73.4029 89.8833 71.1726C87.6529 68.9422 86.134 66.1006 85.5187 63.007C84.9033 59.9135 85.2192 56.7069 86.4262 53.7928C87.6333 50.8787 89.6773 48.388 92.2999 46.6356C94.9225 44.8833 98.0059 43.9479 101.16 43.9479C105.39 43.9479 109.446 45.6282 112.437 48.619C115.428 51.6098 117.108 55.6661 117.108 59.8958Z" fill="#E0E0E0"/>
<path d="M165.954 109.971L166.364 114.33H174.829L175.238 109.972C178.026 109.391 180.679 108.288 183.057 106.722L186.439 109.522L192.421 103.536L189.622 100.155C191.187 97.7766 192.29 95.1242 192.872 92.3369L197.23 91.9265V83.4622L192.872 83.0513C192.291 80.2639 191.188 77.6115 189.622 75.2337L192.421 71.852L186.436 65.8666L183.054 68.666C180.676 67.0999 178.023 65.997 175.236 65.4152L174.826 61.0583H166.362L165.951 65.4167C163.164 65.9988 160.511 67.1015 158.133 68.6671L154.752 65.8676L148.769 71.852L151.569 75.2337C150.003 77.6116 148.9 80.264 148.318 83.0513L143.96 83.4622V91.9265L148.319 92.3369C148.9 95.1242 150.003 97.7768 151.569 100.155L148.769 103.536L154.755 109.522L158.135 106.722C160.513 108.288 163.166 109.39 165.954 109.971ZM170.596 99.1523C168.33 99.1523 166.114 98.4803 164.23 97.2212C162.346 95.9621 160.877 94.1726 160.01 92.0788C159.142 89.985 158.915 87.6811 159.358 85.4584C159.8 83.2356 160.891 81.1939 162.494 79.5914C164.096 77.9889 166.138 76.8976 168.36 76.4554C170.583 76.0133 172.887 76.2402 174.981 77.1075C177.075 77.9748 178.864 79.4434 180.123 81.3278C181.382 83.2121 182.054 85.4275 182.054 87.6938C182.054 90.7328 180.847 93.6473 178.698 95.7962C176.549 97.9451 173.635 99.1523 170.596 99.1523Z" fill="#E0E0E0"/>
<path d="M58.0387 151.671L58.2465 153.894H62.5633L62.7711 151.672C64.1927 151.375 65.5455 150.813 66.7585 150.014L68.4832 151.442L71.5356 148.389L70.1076 146.665C70.9061 145.452 71.4687 144.099 71.7657 142.677L73.9875 142.47V138.152L71.7657 137.945C71.4691 136.523 70.9065 135.17 70.1076 133.957L71.5392 132.23L68.4868 129.177L66.7622 130.605C65.5491 129.807 64.1963 129.244 62.7747 128.947L62.5669 126.725H58.2501L58.0423 128.948C56.6208 129.245 55.268 129.807 54.0548 130.605L52.3307 129.178L49.2746 132.23L50.7021 133.954C49.9038 135.168 49.342 136.522 49.0461 137.945L46.8232 138.152V142.469L49.0461 142.676C49.3429 144.098 49.9053 145.451 50.7037 146.664L49.2762 148.388L52.3286 151.441L54.0527 150.013C55.2652 150.812 56.6175 151.374 58.0387 151.671ZM60.4059 146.153C59.2502 146.153 58.1204 145.81 57.1595 145.168C56.1986 144.526 55.4497 143.613 55.0075 142.546C54.5653 141.478 54.4497 140.303 54.6752 139.169C54.9008 138.036 55.4573 136.995 56.2746 136.177C57.0919 135.36 58.1331 134.804 59.2666 134.578C60.4001 134.353 61.575 134.469 62.6428 134.911C63.7105 135.353 64.6231 136.102 65.2652 137.063C65.9073 138.024 66.25 139.154 66.25 140.31C66.2497 141.859 65.6339 143.346 64.5379 144.441C63.4419 145.537 61.9556 146.152 60.4059 146.152V146.153Z" fill="#F0F0F0"/>
<path d="M213.225 140.885L213.398 142.714H216.95L217.122 140.885C218.292 140.641 219.405 140.178 220.404 139.521L221.823 140.698L224.335 138.185L223.16 136.766C223.817 135.767 224.28 134.654 224.524 133.483L226.353 133.311V129.758L224.524 129.586C224.281 128.416 223.818 127.302 223.16 126.305L224.335 124.885L221.823 122.373L220.404 123.548C219.406 122.891 218.292 122.428 217.122 122.184L216.95 120.355H213.398L213.225 122.184C212.055 122.428 210.942 122.891 209.944 123.548L208.524 122.373L206.012 124.886L207.187 126.305C206.53 127.303 206.067 128.416 205.823 129.586L203.994 129.758V133.311L205.823 133.483C206.067 134.653 206.53 135.766 207.187 136.764L206.012 138.183L208.524 140.698L209.944 139.522C210.942 140.179 212.055 140.641 213.225 140.885ZM215.174 136.343C214.223 136.343 213.293 136.061 212.502 135.533C211.712 135.004 211.095 134.253 210.731 133.375C210.368 132.496 210.272 131.529 210.458 130.596C210.643 129.664 211.101 128.807 211.774 128.134C212.446 127.462 213.303 127.004 214.236 126.818C215.169 126.633 216.136 126.728 217.014 127.092C217.893 127.456 218.644 128.072 219.172 128.863C219.701 129.653 219.983 130.583 219.983 131.534C219.983 132.81 219.476 134.033 218.574 134.935C217.672 135.837 216.449 136.343 215.174 136.343Z" fill="#F0F0F0"/>
<path d="M121.006 169.244H131.084L131.573 164.055C134.891 163.362 138.049 162.049 140.88 160.185L144.906 163.518L152.032 156.393L148.7 152.367C150.564 149.535 151.877 146.377 152.569 143.058L157.758 142.57V132.492L152.569 132.003C151.876 128.685 150.564 125.527 148.7 122.695L152.032 118.669L144.906 111.545L140.88 114.877C138.049 113.013 134.891 111.7 131.572 111.007L131.084 105.819H121.006L120.517 111.007C117.198 111.7 114.04 113.013 111.209 114.877L107.183 111.545L100.058 118.672L103.392 122.698C101.527 125.529 100.214 128.687 99.5215 132.006L94.333 132.495V142.572L99.5215 143.061C100.213 146.379 101.527 149.537 103.392 152.368L100.058 156.395L107.184 163.521L111.21 160.188C114.041 162.052 117.199 163.365 120.518 164.057L121.006 169.244ZM126.045 151.172C123.347 151.172 120.71 150.372 118.467 148.874C116.223 147.375 114.475 145.244 113.443 142.752C112.41 140.259 112.14 137.517 112.666 134.87C113.192 132.224 114.491 129.794 116.399 127.886C118.306 125.978 120.737 124.679 123.383 124.152C126.029 123.625 128.771 123.895 131.264 124.927C133.757 125.96 135.887 127.708 137.387 129.951C138.886 132.194 139.686 134.831 139.687 137.529C139.687 139.321 139.334 141.095 138.649 142.75C137.963 144.405 136.959 145.909 135.692 147.176C134.425 148.443 132.921 149.448 131.266 150.134C129.61 150.82 127.837 151.172 126.045 151.172Z" fill="#E0E0E0"/>
<path d="M177.335 150.805L176.801 149.788C175.964 148.197 174.53 147.004 172.813 146.469C171.097 145.934 169.239 146.102 167.646 146.936L165.218 148.21C163.627 149.047 162.433 150.482 161.898 152.198C161.363 153.915 161.531 155.773 162.365 157.366L162.898 158.383L161.205 159.271L167.31 170.901L185.134 161.545L179.029 149.915L177.335 150.805ZM173.623 159.703L174.687 161.729L173.395 162.407L172.33 160.381C172.084 160.371 171.845 160.297 171.637 160.167C171.428 160.037 171.257 159.855 171.14 159.638C170.966 159.301 170.933 158.908 171.047 158.546C171.162 158.184 171.414 157.882 171.751 157.705C172.087 157.529 172.479 157.493 172.842 157.604C173.205 157.715 173.509 157.966 173.688 158.301C173.8 158.52 173.852 158.764 173.841 159.01C173.83 159.256 173.754 159.495 173.623 159.703ZM174.658 152.209L165.574 156.978L165.041 155.961C164.579 155.078 164.486 154.048 164.783 153.097C165.08 152.146 165.741 151.351 166.623 150.887L169.051 149.612C169.934 149.15 170.963 149.057 171.914 149.353C172.866 149.649 173.661 150.31 174.125 151.191L174.658 152.209Z" fill="#F0F0F0"/>
<path d="M52.7418 89.0382L53.1184 87.9535C53.7061 86.2546 53.5958 84.3919 52.8119 82.7741C52.0279 81.1563 50.6343 79.9156 48.9367 79.324L46.345 78.4243C44.646 77.8363 42.7831 77.9462 41.165 78.7299C39.547 79.5137 38.3059 80.9073 37.714 82.605L37.3374 83.6897L35.5312 83.0627L31.2227 95.4708L50.2411 102.074L54.5496 89.6657L52.7418 89.0382ZM43.7113 92.4147L42.9596 94.5794L41.5804 94.1004L42.3321 91.9363C42.1713 91.7501 42.0616 91.5253 42.014 91.284C41.9664 91.0426 41.9824 90.793 42.0604 90.5597C42.1224 90.3812 42.2189 90.2167 42.3445 90.0756C42.47 89.9344 42.6221 89.8194 42.7922 89.737C42.9622 89.6546 43.1467 89.6066 43.3353 89.5955C43.5239 89.5845 43.7128 89.6107 43.8913 89.6727C44.0698 89.7347 44.2343 89.8312 44.3754 89.9567C44.5166 90.0823 44.6316 90.2344 44.714 90.4044C44.7964 90.5745 44.8444 90.759 44.8555 90.9476C44.8665 91.1362 44.8403 91.3251 44.7783 91.5036C44.6951 91.7353 44.5529 91.9412 44.3658 92.1012C44.1787 92.2612 43.9531 92.3696 43.7113 92.4158V92.4147ZM49.8863 88.0455L40.1945 84.6813L40.5711 83.5967C40.8991 82.6557 41.587 81.8834 42.4839 81.449C43.3807 81.0147 44.4133 80.9538 45.3549 81.2798L47.9455 82.1796C48.8863 82.5074 49.6586 83.195 50.093 84.0915C50.5275 84.9881 50.5886 86.0203 50.2629 86.9618L49.8863 88.0455Z" fill="#F0F0F0"/>
<path d="M222.928 82.9671L221.817 82.6138C223.34 82.3443 224.729 81.572 225.761 80.4203C226.794 79.2686 227.411 77.8039 227.514 76.2604C227.616 74.7169 227.198 73.1836 226.327 71.9055C225.455 70.6274 224.18 69.6783 222.706 69.2098C221.232 68.7414 219.643 68.7806 218.194 69.3213C216.744 69.8619 215.518 70.8728 214.711 72.1924C213.903 73.5119 213.562 75.064 213.74 76.6006C213.919 78.1372 214.607 79.5696 215.696 80.6689L214.585 80.3157C212.961 79.7996 211.199 79.9497 209.685 80.7331C208.172 81.5164 207.032 82.8688 206.516 84.4928L205.404 87.9914L225.992 94.5368L227.104 91.0386C227.36 90.2345 227.455 89.3877 227.384 88.5468C227.312 87.7059 227.076 86.8873 226.688 86.1377C226.301 85.3882 225.769 84.7224 225.124 84.1783C224.479 83.6343 223.732 83.2227 222.928 82.9671Z" fill="#F0F0F0"/>
<path d="M148.26 20.2319L147.568 20.5228C148.202 19.7547 148.561 18.7963 148.586 17.8006C148.612 16.8049 148.302 15.8294 147.708 15.03C147.114 14.2306 146.269 13.6535 145.308 13.3908C144.348 13.128 143.327 13.1949 142.408 13.5808C141.49 13.9666 140.728 14.6491 140.243 15.5191C139.758 16.3892 139.579 17.3967 139.734 18.3806C139.889 19.3644 140.37 20.2679 141.098 20.9467C141.827 21.6254 142.763 22.0402 143.755 22.1249L143.064 22.4158C142.052 22.8408 141.251 23.6502 140.837 24.6658C140.422 25.6815 140.428 26.8203 140.852 27.8318L141.768 30.0105L154.591 24.6225L153.676 22.4433C153.251 21.4319 152.441 20.6308 151.426 20.2161C150.41 19.8014 149.272 19.8071 148.26 20.2319Z" fill="#F0F0F0"/>
<path d="M55.4363 34.8395L54.7013 34.6863C55.659 34.4134 56.4977 33.8273 57.0833 33.0218C57.6688 32.2162 57.9675 31.2377 57.9315 30.2424C57.8955 29.2472 57.527 28.2927 56.8848 27.5315C56.2426 26.7703 55.3638 26.2464 54.3889 26.0434C53.4139 25.8403 52.399 25.97 51.5064 26.4115C50.6137 26.8531 49.8948 27.5811 49.4646 28.4793C49.0343 29.3774 48.9175 30.3939 49.1329 31.3662C49.3482 32.3386 49.8833 33.2106 50.6525 33.8432L49.9185 33.6899C49.3866 33.5791 48.8382 33.5741 48.3044 33.6753C47.7707 33.7765 47.2621 33.9818 46.8077 34.2795C46.3533 34.5772 45.962 34.9615 45.6561 35.4105C45.3502 35.8595 45.1358 36.3643 45.025 36.8961L44.543 39.2098L58.1594 42.0467L58.6415 39.733C58.7524 39.2012 58.7574 38.6528 58.6564 38.1191C58.5553 37.5854 58.3501 37.0768 58.0525 36.6224C57.7548 36.1679 57.3706 35.7766 56.9217 35.4707C56.4728 35.1648 55.9681 34.9503 55.4363 34.8395Z" fill="#F0F0F0"/>
<path d="M168.59 73.553L161.295 73.4509L161.568 53.5891C161.521 46.5705 158.698 39.8559 153.716 34.912C148.734 29.9682 141.997 27.197 134.979 27.2037C127.96 27.2105 121.229 29.9946 116.257 34.948C111.284 39.9015 108.474 46.6215 108.44 53.6401L108.167 73.553L100.871 73.4509L101.145 53.5891C101.197 44.6392 104.791 36.0741 111.141 29.7665C117.491 23.4589 126.079 19.9218 135.029 19.9286C143.98 19.9353 152.563 23.4854 158.903 29.8025C165.243 36.1197 168.824 44.6902 168.864 53.6401L168.59 73.553Z" fill="#324752"/>
<path d="M169.266 63.8738H101.522C92.3131 63.8738 84.8477 71.3393 84.8477 80.5484V145.968C84.8477 155.177 92.3131 162.643 101.522 162.643H169.266C178.475 162.643 185.94 155.177 185.94 145.968V80.5484C185.94 71.3393 178.475 63.8738 169.266 63.8738Z" fill="#455A64"/>
<path d="M145.472 108.05C145.474 106.294 145.017 104.568 144.146 103.042C143.275 101.517 142.021 100.246 140.507 99.3549C138.994 98.4638 137.273 97.9837 135.517 97.9623C133.761 97.9409 132.03 98.3788 130.495 99.2326C128.96 100.086 127.675 101.327 126.767 102.83C125.859 104.334 125.36 106.048 125.319 107.804C125.278 109.56 125.697 111.296 126.534 112.84C127.37 114.385 128.596 115.683 130.089 116.608L127.509 128.544H144.038C144.038 128.544 142.181 121.045 141.011 116.415C142.384 115.495 143.509 114.25 144.287 112.791C145.065 111.332 145.472 109.704 145.472 108.05Z" fill="white"/>
<path d="M91.3188 132.697C90.6632 132.683 90.3732 121.159 90.6705 106.961C90.9677 92.7618 91.7402 81.2579 92.3967 81.2716C93.0533 81.2852 93.3424 92.8066 93.0442 107.011C92.746 121.215 91.9736 132.711 91.3188 132.697Z" fill="#4D6470"/>
<path d="M91.3925 145.827C90.7368 145.835 90.1906 144.713 90.1723 143.322C90.1541 141.93 90.6703 140.795 91.3269 140.786C91.9835 140.777 92.5279 141.898 92.5461 143.291C92.5643 144.683 92.0473 145.816 91.3925 145.827Z" fill="#4D6470"/>
<path d="M123.107 130.16C122.584 129.989 123.816 124.738 125.965 117.749L126.23 118.904C125.261 117.934 124.245 116.918 123.186 115.804C121.555 113.935 120.596 111.573 120.463 109.096C120.352 107.108 120.819 105.13 121.807 103.401C122.441 102.261 123.316 101.273 124.371 100.507C125.122 99.9889 125.62 99.853 125.711 99.9788C125.946 100.268 124.401 101.488 123.316 104.139C122.632 105.805 122.422 107.628 122.71 109.405C122.998 111.183 123.772 112.846 124.947 114.211L127.882 117.312L128.37 117.828L128.147 118.466C125.744 125.37 123.63 130.331 123.107 130.16Z" fill="#4D6470"/>
<path d="M164.836 70.7361C164.836 71.0643 160.797 71.3306 154.272 71.4957C147.747 71.6608 138.733 71.7255 128.781 71.6498C123.802 71.6115 119.06 71.5431 114.748 71.4501C110.431 71.3999 106.533 71.0926 103.424 71.4182C100.957 71.5992 98.5761 72.4034 96.5048 73.7555C95.0594 74.7467 94.4602 75.5793 94.3006 75.469C94.1866 75.4097 94.5277 74.3619 95.9248 73.0359C97.972 71.2502 100.501 70.1082 103.194 69.753C104.994 69.4742 106.813 69.3312 108.634 69.3253L114.764 69.2606C119.078 69.2332 123.821 69.2359 128.799 69.2733C138.752 69.349 147.762 69.5469 154.285 69.815C160.807 70.0831 164.836 70.4087 164.836 70.7361Z" fill="#4D6470"/>
</svg>
