<svg width="126" height="20" viewBox="0 0 126 20" fill="none" xmlns="http://www.w3.org/2000/svg">
<g clip-path="url(#clip0_1410_13487)">
<path d="M19.9479 7.67197C19.8169 7.26699 19.4577 6.97935 19.0328 6.94105L13.2602 6.4169L10.9776 1.0742C10.8093 0.682654 10.426 0.429199 10.0001 0.429199C9.57422 0.429199 9.19091 0.682654 9.0226 1.07512L6.73998 6.4169L0.966514 6.94105C0.542309 6.98027 0.184023 7.26699 0.0523365 7.67197C-0.0793503 8.07695 0.0422654 8.52114 0.363166 8.80115L4.72653 12.6278L3.43987 18.2956C3.34573 18.7123 3.50747 19.1431 3.85325 19.393C4.0391 19.5273 4.25655 19.5956 4.47582 19.5956C4.66488 19.5956 4.85242 19.5447 5.02073 19.444L10.0001 16.468L14.9776 19.444C15.3419 19.6631 15.801 19.6431 16.146 19.393C16.492 19.1423 16.6536 18.7114 16.5594 18.2956L15.2728 12.6278L19.6361 8.80191C19.957 8.52114 20.0796 8.07771 19.9479 7.67197Z" fill="#FF9629"/>
</g>
<g clip-path="url(#clip1_1410_13487)">
<path d="M45.9479 7.67197C45.8169 7.26699 45.4577 6.97935 45.0328 6.94105L39.2602 6.4169L36.9776 1.0742C36.8093 0.682654 36.426 0.429199 36.0001 0.429199C35.5742 0.429199 35.1909 0.682654 35.0226 1.07512L32.74 6.4169L26.9665 6.94105C26.5423 6.98027 26.184 7.26699 26.0523 7.67197C25.9206 8.07695 26.0423 8.52114 26.3632 8.80115L30.7265 12.6278L29.4399 18.2956C29.3457 18.7123 29.5075 19.1431 29.8532 19.393C30.0391 19.5273 30.2565 19.5956 30.4758 19.5956C30.6649 19.5956 30.8524 19.5447 31.0207 19.444L36.0001 16.468L40.9776 19.444C41.3419 19.6631 41.801 19.6431 42.146 19.393C42.492 19.1423 42.6536 18.7114 42.5594 18.2956L41.2728 12.6278L45.6361 8.80191C45.957 8.52114 46.0796 8.07771 45.9479 7.67197Z" fill="#FF9629"/>
</g>
<g clip-path="url(#clip2_1410_13487)">
<path d="M72.3483 7.67197C72.2173 7.26699 71.8581 6.97935 71.4332 6.94105L65.6606 6.4169L63.378 1.0742C63.2097 0.682654 62.8264 0.429199 62.4005 0.429199C61.9746 0.429199 61.5913 0.682654 61.423 1.07512L59.1404 6.4169L53.3669 6.94105C52.9427 6.98027 52.5844 7.26699 52.4527 7.67197C52.321 8.07695 52.4427 8.52114 52.7636 8.80115L57.1269 12.6278L55.8403 18.2956C55.7461 18.7123 55.9079 19.1431 56.2536 19.393C56.4395 19.5273 56.6569 19.5956 56.8762 19.5956C57.0653 19.5956 57.2528 19.5447 57.4211 19.444L62.4005 16.468L67.378 19.444C67.7423 19.6631 68.2014 19.6431 68.5464 19.393C68.8924 19.1423 69.054 18.7114 68.9598 18.2956L67.6731 12.6278L72.0365 8.80191C72.3574 8.52114 72.4799 8.07771 72.3483 7.67197Z" fill="#FF9629"/>
</g>
<g clip-path="url(#clip3_1410_13487)">
<path d="M98.9479 7.67197C98.8169 7.26699 98.4577 6.97935 98.0328 6.94105L92.2602 6.4169L89.9776 1.0742C89.8093 0.682654 89.426 0.429199 89.0001 0.429199C88.5742 0.429199 88.1909 0.682654 88.0226 1.07512L85.74 6.4169L79.9665 6.94105C79.5423 6.98027 79.184 7.26699 79.0523 7.67197C78.9206 8.07695 79.0423 8.52114 79.3632 8.80115L83.7265 12.6278L82.4399 18.2956C82.3457 18.7123 82.5075 19.1431 82.8532 19.393C83.0391 19.5273 83.2565 19.5956 83.4758 19.5956C83.6649 19.5956 83.8524 19.5447 84.0207 19.444L89.0001 16.468L93.9776 19.444C94.3419 19.6631 94.801 19.6431 95.146 19.393C95.492 19.1423 95.6536 18.7114 95.5594 18.2956L94.2728 12.6278L98.6361 8.80191C98.957 8.52114 99.0796 8.07771 98.9479 7.67197Z" fill="#FF9629"/>
</g>
<g clip-path="url(#clip4_1410_13487)">
<path d="M125.948 7.67197C125.817 7.26699 125.458 6.97935 125.033 6.94105L119.26 6.4169L116.978 1.0742C116.809 0.682654 116.426 0.429199 116 0.429199C115.574 0.429199 115.191 0.682654 115.023 1.07512L112.74 6.4169L106.967 6.94105C106.542 6.98027 106.184 7.26699 106.052 7.67197C105.921 8.07695 106.042 8.52114 106.363 8.80115L110.727 12.6278L109.44 18.2956C109.346 18.7123 109.507 19.1431 109.853 19.393C110.039 19.5273 110.257 19.5956 110.476 19.5956C110.665 19.5956 110.852 19.5447 111.021 19.444L116 16.468L120.978 19.444C121.342 19.6631 121.801 19.6431 122.146 19.393C122.492 19.1423 122.654 18.7114 122.559 18.2956L121.273 12.6278L125.636 8.80191C125.957 8.52114 126.08 8.07771 125.948 7.67197Z" fill="#FF9629"/>
</g>
<defs>
<clipPath id="clip0_1410_13487">
<rect width="20" height="20" fill="white"/>
</clipPath>
<clipPath id="clip1_1410_13487">
<rect width="20" height="20" fill="white" transform="translate(26)"/>
</clipPath>
<clipPath id="clip2_1410_13487">
<rect width="20" height="20" fill="white" transform="translate(52.4004)"/>
</clipPath>
<clipPath id="clip3_1410_13487">
<rect width="20" height="20" fill="white" transform="translate(79)"/>
</clipPath>
<clipPath id="clip4_1410_13487">
<rect width="20" height="20" fill="white" transform="translate(106)"/>
</clipPath>
</defs>
</svg>
