<svg width="20" height="20" viewBox="0 0 20 20" fill="none" xmlns="http://www.w3.org/2000/svg">
<g clip-path="url(#clip0_1846_21472)">
<path d="M11.0011 0.484863C9.7672 0.484863 8.72656 1.5255 8.72656 2.75936C8.72656 3.99322 9.7672 5.03386 11.0011 5.03386C12.2349 5.03386 13.2383 3.99322 13.2383 2.75936C13.2383 1.5255 12.2349 0.484863 11.0011 0.484863Z" fill="#303030" fill-opacity="0.6"/>
<path d="M13.4835 5.03387C12.8689 5.71544 11.9885 6.15248 11.0005 6.15248C10.0126 6.15248 9.09491 5.71544 8.48023 5.03387C7.9436 5.62894 7.60742 6.40849 7.60742 7.27109V7.83039C7.60742 8.13953 7.85758 8.38969 8.16672 8.38969H13.797C14.1062 8.38969 14.3563 8.13953 14.3563 7.83039V7.27109C14.3563 6.40849 14.0202 5.62894 13.4835 5.03387Z" fill="#303030" fill-opacity="0.6"/>
<path d="M6.2982 17.6519L3.44796 11.9375C3.17274 11.3857 2.50292 11.1606 1.95044 11.4344L1.20549 11.8034C0.928111 11.941 0.815244 12.2781 0.95369 12.555L4.30951 19.2666C4.44751 19.5434 4.7832 19.6535 5.05834 19.5178L5.79371 19.1535C6.34835 18.8788 6.57442 18.2058 6.2982 17.6519Z" fill="#303030" fill-opacity="0.6"/>
<path d="M19.5271 9.72084C19.0685 9.38526 18.4309 9.45238 18.0506 9.86626L14.993 13.6248C14.7805 13.8485 14.3778 13.9827 14.1653 13.9827H11.5589C11.2456 13.9827 10.9996 13.7367 10.9996 13.4234C10.9996 13.1102 11.2456 12.8641 11.5589 12.8641C12.308 12.8641 13.1373 12.8641 13.7961 12.8641C14.4113 12.8641 14.9147 12.3608 14.9147 11.7455C14.9147 11.1303 14.4113 10.6269 13.7961 10.6269C11.1694 10.6269 13.6749 10.6269 10.8654 10.6269C10.5866 10.6269 10.4476 10.4501 10.2277 10.2577C9.36236 9.479 8.06701 9.10382 6.75563 9.40778C6.02749 9.57654 5.53646 9.8707 5.03846 10.2651L5.02187 10.2517L4.21289 10.9636L7.39212 17.3385H8.33354H13.7961C14.8476 17.3385 15.8544 16.8352 16.4808 15.9962L19.762 11.2981C20.1311 10.8059 20.0305 10.09 19.5271 9.72084Z" fill="#303030" fill-opacity="0.6"/>
</g>
<defs>
<clipPath id="clip0_1846_21472">
<rect width="19.0909" height="19.0909" fill="white" transform="translate(0.894531 0.484863)"/>
</clipPath>
</defs>
</svg>
