<svg width="8" height="9" viewBox="0 0 8 9" fill="none" xmlns="http://www.w3.org/2000/svg">
<g clip-path="url(#clip0_1738_12995)">
<path d="M4.23437 0.681641C3.71733 0.681641 3.28125 1.0979 3.28125 1.59144C3.28125 2.08498 3.71733 2.50124 4.23437 2.50124C4.75142 2.50124 5.17187 2.08498 5.17187 1.59144C5.17187 1.0979 4.75142 0.681641 4.23437 0.681641Z" fill="#303030" fill-opacity="0.6"/>
<path d="M5.27487 2.50195C5.01729 2.77458 4.64837 2.9494 4.23437 2.9494C3.82037 2.9494 3.43583 2.77458 3.17825 2.50195C2.95337 2.73998 2.8125 3.0518 2.8125 3.39684V3.62056C2.8125 3.74422 2.91733 3.84428 3.04687 3.84428H5.40624C5.53579 3.84428 5.64062 3.74422 5.64062 3.62056V3.39684C5.64062 3.0518 5.49974 2.73998 5.27487 2.50195Z" fill="#303030" fill-opacity="0.6"/>
<path d="M2.2644 7.54825L1.07001 5.26249C0.954679 5.04177 0.673992 4.95176 0.442477 5.06125L0.130306 5.20886C0.0140716 5.26388 -0.0332252 5.39872 0.0247904 5.50948L1.43104 8.19414C1.48887 8.30485 1.62954 8.34891 1.74483 8.29463L2.05299 8.1489C2.28541 8.03901 2.38015 7.76981 2.2644 7.54825Z" fill="#303030" fill-opacity="0.6"/>
<path d="M7.80802 4.37635C7.61582 4.24212 7.34863 4.26896 7.18927 4.43452L5.90802 5.93792C5.81896 6.02741 5.65021 6.08111 5.56115 6.08111H4.46895C4.33768 6.08111 4.23457 5.98268 4.23457 5.85738C4.23457 5.73209 4.33768 5.63366 4.46895 5.63366C4.78285 5.63366 5.13038 5.63366 5.40645 5.63366C5.66426 5.63366 5.87519 5.43231 5.87519 5.18622C5.87519 4.94013 5.66426 4.73878 5.40645 4.73878C4.30573 4.73878 5.35566 4.73878 4.17832 4.73878C4.06151 4.73878 4.00326 4.66807 3.91114 4.59111C3.5485 4.27961 3.00568 4.12954 2.45615 4.25113C2.15103 4.31863 1.94526 4.43629 1.73658 4.59406L1.72962 4.58868L1.39062 4.87346L2.72287 7.42343H3.11737H5.40645C5.84707 7.42343 6.26896 7.22208 6.53146 6.8865L7.90644 5.00724C8.06113 4.81035 8.01894 4.52402 7.80802 4.37635Z" fill="#303030" fill-opacity="0.6"/>
</g>
<defs>
<clipPath id="clip0_1738_12995">
<rect width="8" height="7.63636" fill="white" transform="translate(0 0.681641)"/>
</clipPath>
</defs>
</svg>
