<svg width="121" height="119" viewBox="0 0 121 119" fill="none" xmlns="http://www.w3.org/2000/svg">
<path d="M55.0506 106.243C83.8405 106.243 107.179 82.9045 107.179 54.1146C107.179 25.3247 83.8405 1.98587 55.0506 1.98587C26.2607 1.98587 2.92188 25.3247 2.92188 54.1146C2.92188 82.9045 26.2607 106.243 55.0506 106.243Z" fill="#ACB4FF"/>
<path d="M57.4572 12.5369C28.0583 18.6899 7.00675 51.6067 18.0156 81.5117C19.259 84.8894 14.7124 87.334 12.6198 84.4058C6.24865 75.4913 2.66493 64.5463 2.93624 52.8796C3.60448 24.1482 27.6971 1.18977 56.5541 2.00719C62.8349 2.18493 63.6074 11.2499 57.4572 12.5369Z" fill="white" fill-opacity="0.3"/>
<path d="M99.7074 81.0204C90.5799 96.1378 73.9956 106.243 55.0505 106.243C36.1054 106.243 19.521 96.1378 10.3936 81.0204C15.5965 67.8219 33.6181 58.0863 55.0505 58.0863C76.4828 58.0863 94.5045 67.8219 99.7074 81.0204Z" fill="#FFEFE7"/>
<path d="M118.079 88.2688C118.114 101.889 108.835 113.767 95.7384 117.014C82.2445 113.579 73.3653 101.572 73.3975 88.2688V71.0787C73.4025 69.3659 74.5866 67.8765 76.2473 67.457L94.3632 62.8821C95.2668 62.6537 96.2101 62.6537 97.1112 62.8821C100.698 63.7881 110.394 66.2357 115.23 67.457C116.89 67.8765 118.074 69.3684 118.079 71.0812V88.2688Z" fill="#DAFFBF"/>
<path d="M118.079 71.0812V88.2688C118.114 101.889 108.835 113.767 95.738 117.014C90.5368 115.691 86.0209 113.093 82.4377 109.638C81.1812 108.426 82.014 106.283 83.7586 106.235C103.383 105.687 111.908 86.1698 106.419 68.3447C105.963 66.864 107.3 65.4545 108.802 65.8338C111.227 66.4462 113.529 67.0278 115.229 67.4568C116.89 67.8765 118.074 69.3684 118.079 71.0812Z" fill="#BEFA91"/>
<path d="M56.1092 68.3402C38.9484 69.9619 23.1728 77.8373 17.9348 90.7188C15.049 87.7933 12.5178 84.5381 10.3936 81.0204C15.5965 67.8219 33.6181 58.0863 55.0505 58.0863C55.261 58.0863 55.471 58.0873 55.6808 58.089C62.1956 58.1471 62.5955 67.7271 56.1092 68.3402Z" fill="white" fill-opacity="0.8"/>
<path d="M77.6392 39.6327V49.2343C77.6392 61.7427 67.4914 71.8234 55.05 71.8234C42.5739 71.8234 32.4609 61.7105 32.4609 49.2343V39.6327C32.4609 27.1566 42.5739 17.0436 55.05 17.0436C67.5262 17.0436 77.6392 27.1566 77.6392 39.6327Z" fill="#FFEFE7"/>
<path d="M75.8367 61.3751C77.0925 61.7974 77.6066 63.3036 76.849 64.3906C66.2571 79.5881 43.846 79.5934 33.2505 64.3906C32.4929 63.3036 33.007 61.7974 34.2628 61.3751C34.7396 61.2148 35.221 61.0601 35.7075 60.9112C44.5252 75.4878 65.6152 75.4178 74.392 60.9112C74.8782 61.0601 75.3598 61.2148 75.8367 61.3751Z" fill="#B5D5F5"/>
<path d="M57.127 25.9018C48.8068 29.0141 42.4744 36.93 42.391 46.8804C42.39 47.0129 42.3962 47.145 42.4066 47.2773C42.5814 49.5181 42.4069 51.9512 42.3733 54.5286C42.3053 59.7462 34.9552 60.8129 33.436 55.8207C32.7875 53.6855 32.4589 51.4661 32.4609 49.2346V39.9214C32.4609 27.2914 42.9038 16.7311 55.6289 17.0511C60.6703 17.1777 61.8504 24.1346 57.127 25.9018Z" fill="white" fill-opacity="0.8"/>
<path d="M115.716 65.5322L97.5978 60.9558C96.3766 60.6488 95.0984 60.649 93.8773 60.9563L75.7596 65.5328C73.2066 66.1777 71.4188 68.4557 71.4118 71.0778V88.2641C71.4012 92.4855 72.2543 96.7072 73.8865 100.596C51.831 109.557 25.8613 101.757 12.6332 80.8261C16.0176 73.327 24.1984 66.8722 34.8855 63.2637C41.2869 72.4363 52.7572 75.9282 62.8652 72.5383C63.3579 72.3656 63.7627 72.0059 63.9921 71.5369C64.2216 71.0679 64.2571 70.5275 64.0911 70.0325C63.9251 69.5376 63.5709 69.1279 63.1051 68.8921C62.6393 68.6563 62.0994 68.6134 61.6022 68.7727C48.2597 73.2478 34.4469 63.2607 34.4469 49.2338V39.6332C34.4469 28.2724 43.6893 19.03 55.0501 19.03C66.411 19.03 75.6534 28.2724 75.6534 39.6332V49.2338C75.6534 52.3037 74.9963 55.255 73.7003 58.0051C73.5891 58.241 73.5254 58.4965 73.513 58.7569C73.5005 59.0174 73.5395 59.2778 73.6277 59.5232C73.7159 59.7686 73.8516 59.9942 74.027 60.1872C74.2024 60.3801 74.4141 60.5367 74.65 60.6478C75.641 61.1155 76.8253 60.6902 77.2927 59.6981C78.8404 56.4144 79.6251 52.8938 79.6251 49.2338V39.6332C79.6251 26.0825 68.6009 15.0582 55.0501 15.0582C41.4994 15.0582 30.4752 26.0825 30.4752 39.6332V49.2338C30.4752 52.9995 31.3276 56.5696 32.848 59.7626C22.5032 63.3994 14.5421 69.4012 10.2922 76.7037C6.85017 69.9113 4.90726 62.236 4.90726 54.1146C4.90726 26.4657 27.4013 3.97171 55.0501 3.97171C82.6989 3.97171 105.193 26.4657 105.193 54.1146C105.193 54.6413 105.402 55.1464 105.775 55.5188C106.147 55.8912 106.652 56.1004 107.179 56.1004C107.706 56.1004 108.211 55.8912 108.583 55.5188C108.955 55.1464 109.165 54.6413 109.165 54.1146C109.165 24.2068 84.9616 0 55.0501 0C25.1424 0 0.935547 24.2031 0.935547 54.1146C0.935547 84.0223 25.1387 108.229 55.0501 108.229C63.601 108.229 72.1791 106.036 77.431 103.397C78.3847 102.916 78.8074 101.746 78.3244 100.752C76.3201 96.7435 75.3726 92.45 75.3833 88.2693V71.083C75.3853 70.2824 75.9398 69.5839 76.7319 69.3838L94.8499 64.8072C95.4325 64.6606 96.0423 64.6604 96.625 64.8067L114.742 69.3831C115.536 69.5836 116.091 70.2837 116.093 71.0807V88.2745C116.125 100.844 107.782 111.746 95.7438 114.962C91.5258 113.811 87.7592 111.767 84.5408 108.882C84.3467 108.708 84.1201 108.574 83.8741 108.488C83.628 108.401 83.3674 108.364 83.107 108.378C82.8465 108.392 82.5915 108.458 82.3563 108.571C82.1212 108.683 81.9106 108.841 81.7365 109.036C81.5625 109.23 81.4283 109.456 81.3418 109.702C81.2553 109.948 81.2181 110.209 81.2323 110.47C81.2466 110.73 81.3119 110.985 81.4247 111.22C81.5375 111.455 81.6955 111.666 81.8897 111.84C85.6586 115.218 90.2777 117.673 95.2478 118.939C95.5652 119.019 95.8978 119.02 96.2157 118.942C110.191 115.477 120.101 102.78 120.064 88.2696V71.0758C120.058 68.4569 118.27 66.1777 115.716 65.5322Z" fill="black"/>
<path d="M95.417 95.1074L106.596 83.929C106.968 83.5565 107.177 83.0514 107.177 82.5247C107.177 81.998 106.968 81.4929 106.596 81.1205C106.223 80.748 105.718 80.5388 105.191 80.5388C104.665 80.5388 104.16 80.748 103.787 81.1205L94.0127 90.8949L90.2661 87.148C89.8937 86.7756 89.3886 86.5664 88.8619 86.5664C88.3352 86.5664 87.8301 86.7756 87.4576 87.148C87.0852 87.5205 86.876 88.0256 86.876 88.5523C86.876 89.079 87.0852 89.5841 87.4576 89.9565L92.6084 95.1074C92.9809 95.4797 93.486 95.6888 94.0127 95.6888C94.5394 95.6888 95.0445 95.4797 95.417 95.1074Z" fill="black"/>
</svg>
