<svg width="26" height="24" viewBox="0 0 26 24" fill="none" xmlns="http://www.w3.org/2000/svg">
<path d="M24.9785 9.06923C24.8985 8.82106 24.7471 8.60194 24.5433 8.4392C24.3396 8.27645 24.0924 8.17728 23.8327 8.15403L16.6043 7.49764L13.7461 0.807538C13.5353 0.317263 13.0553 0 12.522 0C11.9888 0 11.5088 0.317312 11.298 0.808761L8.43973 7.49769L1.21024 8.15403C0.950806 8.1778 0.704048 8.27718 0.500564 8.43987C0.29708 8.60256 0.145819 8.82139 0.0655348 9.06923C-0.0993577 9.57638 0.0529147 10.1326 0.454751 10.4832L5.91856 15.2749L4.30739 22.372C4.18951 22.8938 4.39202 23.4333 4.82501 23.7462C5.0577 23.9144 5.33001 24 5.60457 24C5.84132 24 6.07611 23.9362 6.28694 23.8101L12.522 20.0835L18.7549 23.8101C19.211 24.0845 19.7859 24.0594 20.2179 23.7462C20.4294 23.5931 20.5913 23.3813 20.6833 23.1369C20.7753 22.8926 20.7935 22.6266 20.7355 22.372L19.1244 15.2749L24.5882 10.4842C24.7847 10.3125 24.9265 10.0869 24.9959 9.83535C25.0653 9.58379 25.0593 9.31739 24.9785 9.06923Z" fill="#FFC107"/>
</svg>
