<svg width="10" height="8" viewBox="0 0 10 8" fill="none" xmlns="http://www.w3.org/2000/svg">
<path fill-rule="evenodd" clip-rule="evenodd" d="M2.8049 6.99721C4.89905 4.82509 6.59893 3.06183 8.69307 0.889803C8.7285 0.853053 8.78651 0.853224 8.82177 0.889803L8.98451 1.05851L8.98607 1.06022L9.33618 1.42337L9.33783 1.42508L9.50057 1.59387C9.53583 1.63045 9.536 1.69054 9.50057 1.72729C7.40641 3.89941 5.70654 5.66267 3.61239 7.8348C3.57696 7.87147 3.5192 7.87147 3.48377 7.8348L3.32104 7.66601L3.31939 7.6643L2.96928 7.30115L2.96763 7.29944L2.80489 7.13065C2.76946 7.0939 2.76947 7.03396 2.8049 6.99721Z" fill="#30DD9F"/>
<path fill-rule="evenodd" clip-rule="evenodd" d="M3.48345 7.83472C1.3893 5.66259 2.35113 6.66024 0.25698 4.48811C0.22155 4.45136 0.221714 4.3912 0.25698 4.35462L0.419714 4.18591L0.421363 4.1842L0.771473 3.82105L0.773038 3.81934L0.935772 3.65054C0.971038 3.61397 1.02905 3.6138 1.06448 3.65054C3.15863 5.82267 2.19679 4.82502 4.29086 6.99715C4.32629 7.0339 4.32629 7.09381 4.29086 7.13056L4.12813 7.29936L4.12656 7.30107L3.77645 7.66421L3.7748 7.66592L3.61207 7.83472C3.57664 7.87139 3.51888 7.87139 3.48345 7.83472Z" fill="#30DD9F"/>
</svg>
