<svg width="22" height="22" viewBox="0 0 22 22" fill="none" xmlns="http://www.w3.org/2000/svg">
<path d="M8.35094 11.3357C6.89949 11.3357 5.72689 12.5083 5.74834 13.9455C5.76264 14.8678 6.27029 15.6686 7.01746 16.1155C6.76364 15.7258 6.61349 15.2646 6.60634 14.7677C6.58489 13.3306 7.75749 12.158 9.20893 12.158C9.49493 12.158 9.77021 12.2044 10.0276 12.2867V9.4088C9.75948 9.36947 9.48421 9.34802 9.20893 9.34802C9.19463 9.34802 9.18391 9.34802 9.16961 9.34802V11.4644C8.91221 11.3822 8.63693 11.3357 8.35094 11.3357Z" fill="#F00044"/>
<path d="M14.6244 2.70569H14.603H13.8594C14.0739 3.78176 14.678 4.71841 15.5217 5.35476C14.9676 4.62189 14.6316 3.70669 14.6244 2.70569Z" fill="#F00044"/>
<path d="M19.001 7.08512C18.7186 7.08512 18.4469 7.05652 18.1788 7.00647V9.06924C17.2064 9.06924 16.2626 8.87977 15.376 8.50082C14.804 8.25772 14.2713 7.94669 13.7815 7.57132L13.7958 13.9312C13.7887 15.3612 13.2238 16.7019 12.2014 17.7136C11.3684 18.5358 10.3138 19.0614 9.16977 19.2294C8.90165 19.2687 8.62637 19.2902 8.3511 19.2902C7.12845 19.2902 5.963 18.8933 5.01562 18.1605C5.12287 18.2892 5.23727 18.4143 5.3624 18.5358C6.392 19.5511 7.75765 20.1124 9.21267 20.1124C9.48795 20.1124 9.76322 20.091 10.0313 20.0516C11.1753 19.8836 12.23 19.3581 13.0629 18.5358C14.0854 17.5241 14.6502 16.1835 14.6574 14.7535L14.6038 8.39357C15.09 8.76894 15.6226 9.08354 16.1982 9.32307C17.0884 9.69844 18.0322 9.89149 19.001 9.89149" fill="#F00044"/>
<path d="M5.35157 10.9317C6.37044 9.92001 7.72536 9.35873 9.16966 9.34801V8.58653C8.90154 8.54721 8.62626 8.52576 8.35099 8.52576C6.89239 8.52576 5.52316 9.08703 4.49357 10.1095C3.48184 11.1141 2.90269 12.4869 2.90627 13.9133C2.90627 15.3504 3.47469 16.6982 4.50072 17.7171C4.66517 17.878 4.83319 18.0281 5.01194 18.1639C4.20399 17.2023 3.76427 16.0011 3.76069 14.7355C3.76427 13.3091 4.33984 11.9363 5.35157 10.9317Z" fill="#08FFF9"/>
<path d="M18.178 7.00639V6.24134H18.1709C17.177 6.24134 16.2618 5.91244 15.5254 5.35474C16.1653 6.19844 17.102 6.79904 18.178 7.00639Z" fill="#08FFF9"/>
<path d="M9.06248 17.2988C9.4021 17.3167 9.72743 17.2702 10.0277 17.1737C11.0645 16.8341 11.8117 15.8688 11.8117 14.732L11.8152 10.4777V2.70567H13.8601C13.8065 2.43755 13.7779 2.16585 13.7743 1.88342H10.9572V9.65189L10.9537 13.9061C10.9537 15.043 10.2065 16.0082 9.16973 16.3479C8.86943 16.448 8.5441 16.4944 8.20448 16.473C7.7719 16.448 7.36793 16.3193 7.01758 16.1119C7.4573 16.7912 8.20805 17.2523 9.06248 17.2988Z" fill="#08FFF9"/>
<path d="M9.16909 19.2293C10.3131 19.0613 11.3677 18.5358 12.2007 17.7135C13.2231 16.7018 13.788 15.3612 13.7951 13.9312L13.7808 7.57126C14.267 7.94664 14.7997 8.26124 15.3753 8.50076C16.2655 8.87614 17.2093 9.06919 18.1781 9.06919V7.00641C17.102 6.79906 16.1654 6.19846 15.5254 5.35476C14.6817 4.71841 14.074 3.78176 13.8631 2.70569H11.8146V10.4742L11.811 14.7284C11.811 15.8653 11.0638 16.8305 10.0271 17.1701C9.72678 17.2702 9.40146 17.3167 9.06184 17.2953C8.20384 17.2488 7.45666 16.7876 7.01694 16.1119C6.26976 15.6686 5.76211 14.8643 5.74781 13.9419C5.72636 12.5048 6.89896 11.3322 8.35041 11.3322C8.63641 11.3322 8.91168 11.3786 9.16909 11.4609V9.34446C7.72479 9.35519 6.36986 9.91646 5.35099 10.9282C4.33926 11.9328 3.76011 13.3056 3.76369 14.7284C3.76369 15.994 4.20341 17.1952 5.01494 18.1568C5.96589 18.8897 7.12776 19.2865 8.35041 19.2865C8.62569 19.2901 8.90096 19.2687 9.16909 19.2293Z" fill="black"/>
</svg>
