<svg width="40" height="40" viewBox="0 0 40 40" fill="none" xmlns="http://www.w3.org/2000/svg">
<g clip-path="url(#clip0_736_1904)">
<path d="M40 0H0V40H40V0Z" fill="white"/>
<path d="M26.4114 32.1511C28.8281 32.1511 30.7993 30.18 30.7993 27.7632C30.7993 23.4833 27.316 20 23.036 20H16.9605C12.6806 20 9.19727 23.4833 9.19727 27.7632C9.19727 30.18 11.1684 32.1511 13.5852 32.1511H26.4114Z" fill="black" fill-opacity="0.5"/>
<path d="M14.5977 13.2492C14.5977 16.2329 17.0144 18.6496 19.9982 18.6496C22.9819 18.6496 25.3987 16.2329 25.3987 13.2492C25.3987 10.2653 22.9819 7.84863 19.9982 7.84863C17.0144 7.84863 14.5977 10.2653 14.5977 13.2492Z" fill="black" fill-opacity="0.5"/>
</g>
<defs>
<clipPath id="clip0_736_1904">
<rect width="40" height="40" fill="white"/>
</clipPath>
</defs>
</svg>
