<svg width="18" height="18" viewBox="0 0 18 18" fill="none" xmlns="http://www.w3.org/2000/svg">
<path d="M9.10265 8.27441C9.03837 8.26798 8.96122 8.26798 8.89051 8.27441C7.36051 8.22298 6.14551 6.96941 6.14551 5.42655C6.14551 3.85155 7.41837 2.57227 8.99979 2.57227C10.5748 2.57227 11.8541 3.85155 11.8541 5.42655C11.8477 6.96941 10.6327 8.22298 9.10265 8.27441Z" stroke="#3C3C3C" stroke-linecap="round" stroke-linejoin="round"/>
<path d="M5.88847 10.646C4.33275 11.6874 4.33275 13.3846 5.88847 14.4196C7.65632 15.6024 10.5556 15.6024 12.3235 14.4196C13.8792 13.3781 13.8792 11.681 12.3235 10.646C10.562 9.46956 7.66275 9.46956 5.88847 10.646Z" stroke="#3C3C3C" stroke-linecap="round" stroke-linejoin="round"/>
</svg>
