<svg width="22" height="22" viewBox="0 0 22 22" fill="none" xmlns="http://www.w3.org/2000/svg">
<path d="M20.8777 16.1552C20.6401 17.0387 19.9434 17.7353 19.06 17.9732C17.446 18.4148 10.99 18.4148 10.99 18.4148C10.99 18.4148 4.53422 18.4148 2.92025 17.9899C2.05378 17.7523 1.34014 17.0386 1.10247 16.1552C0.677734 14.5413 0.677734 11.1944 0.677734 11.1944C0.677734 11.1944 0.677734 7.83064 1.10247 6.23366C1.34039 5.3502 2.03679 4.65368 2.92038 4.41575C4.55122 3.97402 10.9902 3.97402 10.9902 3.97402C10.9902 3.97402 17.446 3.97402 19.06 4.39888C19.9436 4.63668 20.6401 5.3332 20.878 6.21666C21.3026 7.83064 21.3026 11.1774 21.3026 11.1774C21.3026 11.1774 21.3196 14.5413 20.8777 16.1552ZM8.93453 8.10242V14.2864L14.303 11.1944L8.93453 8.10242Z" fill="#CD201F"/>
</svg>
